/* XPM */
static char *result[] = {
/* columns rows colors chars-per-pixel */
"64 64 45 1 ",
"  c #57575D",
". c #58575D",
"X c #59575D",
"o c #58575E",
"O c #5D6262",
"+ c #5E6565",
"@ c #636F6B",
"# c #66766F",
"$ c #677C70",
"% c #687D71",
"& c #6E8277",
"* c #6C8676",
"= c #71947D",
"- c #749E81",
"; c #75A083",
": c #77A585",
"> c #78A786",
", c #7EAE8D",
"< c #7BB08A",
"1 c #7DB68D",
"2 c #6DC180",
"3 c #7ECA91",
"4 c #85B493",
"5 c #80C192",
"6 c #80CB93",
"7 c #82C894",
"8 c #81CB94",
"9 c #82CB95",
"0 c #83CC96",
"q c #8BC19B",
"w c #85CD98",
"e c #86CE99",
"r c #87CE9A",
"t c #88CE9B",
"y c #89CE9B",
"u c #88D09A",
"i c #8BD09D",
"p c #8DD19F",
"a c #91CEA3",
"s c #8DD1A0",
"d c #8FD2A1",
"f c #8FD1A2",
"g c #95D5A7",
"h c #96D5A6",
"j c None",
/* pixels */
"jjjjjjjjjjjjjjjjjjjjggghjjjjjjjjjjjjjjjjjjjjjjjjjjjjjjjjjjjjjjjj",
"jjjjjjjjjjjjjjjjjjjjggggggggggghjjjjjjjjjjjjjjjjjjjjjjjjjjjjjjjj",
"jjjjjjjjjjjjjjjjjjjjgggggggggggggggggggfyujjjjjjjjjjjjjjjjjjjjjj",
"jjjjjjjjjjjjjjjjjjjjgggggggggggggggggggp666690weyujjjjjjjjjjjjjj",
"jjjjjjjjjjjjjjjjjjj&gggggggggggggggggggp66666666666690wejjjjjjjj",
"jjjjjjjj...........@gggggggggggggggggggp6666666666666666tjjjjjjj",
"jjjjjjjj...........@gggggggggggggggggggp6666666666666666tjjjjjjj",
"jjjjjjjj...........@gggggggggggggggggggp6666666666666666tjjjjjjj",
"jjjjjjjj...........@gggggggggggggggggggp6666666666666666tjjjjjjj",
"jjjjjjjj...........@gggggggggggggggggggp6666666666666666tjjjjjjj",
"jjjjjjjj...........@gggggggggggggggggggp6666666666666666tjjjjjjj",
"jjjjjjjj...........@gggggggggggggggggggp6666666666666666tjjjjjjj",
"jjjjjjjj...........@gggggggggggggggggggp6666666666666666tjjjjjjj",
"jjjjjjjj...........@gggggggggggggggggggp6666666666666666tjjjjjjj",
"jjjjjjjj...........@gggggggggggggggggggp6666666666666666tjjjjjjj",
"jjjjjjjj...........@gggggggggggggggggggp6666666666666666tjjjjjjj",
"jjjjjjjj...........@gggggggggggggggggggp6666666666666666tjjjjjjj",
"jjjjjjjj...........@gggggggggggggggggggp6666666666666666tjjjjjjj",
"jjjjjjjj...........@gggggggggggggggggggp6666666666666666tjjjjjjj",
"jjjjjjjj...........@gggggggggggggggggggp6666666666666666tjjjjjjj",
"jjjjjjjj...........@gggggggggggggggggggp6666666666666666tjjjjjjj",
"jjjjjjjj...........@gggggggggggggggggggp6666666666666666tjjjjjjj",
"jjjjjjjj...........@gggggggggggggggggggp6666666666666666tjjjjjjj",
"jjjjjjjj...........@gggggggggggggggggggp6666666666666666tjjjjjjj",
"jjjjjjjj...........@gggggggggggggggggggp6666666666666666tjjjjjjj",
"jjjjjjjj...........@gggggggggggggggggggp6666666666666666tjjjjjjj",
"jjjjjjjj...........@gggggggggggggggggggp6666666666666666tjjjjjjj",
"jjjjjjjj...........@ggggggs3333dgggggggp6666666666666666tjjjjjjj",
"jjjjjjjj...........@ggggggr2222igggggggp6666666666666666tjjjjjjj",
"jjjjjjjj...........@ggggggr2222igggggggp6666666666666666tjjjjjjj",
"jjjjjjjj...........@ggggggr2222igggggggp6666666666666666tjjjjjjj",
"jjjjjjjj...........@ggggggr2222igggggggp6666666666666666tjjjjjjj",
"jjjjjjjj...........@ggggggr2222igggggggp6666666666666666tjjjjjjj",
"jjjjjjjj...........@ggggggr2222igggggggp6666666666666666tjjjjjjj",
"jjjjjjjj...........@ggggggr2222igggggggp6666666666666666tjjjjjjj",
"jjjjjjjj...........@ggggggr2222igggggggp6666666666666666tjjjjjjj",
"jjjjjjjj...........@ggggggs3333dgggggggp6666666666666666tjjjjjjj",
"jjjjjjjj...........@gggggggggggggggggggp6666666666666666tjjjjjjj",
"jjjjjjjj...........@gggggggggggggggggggp6666666666666666tjjjjjjj",
"jjjjjjjj...........@gggggggggggggggggggp6666666666666666tjjjjjjj",
"jjjjjjjj...........@gggggggggggggggggggp6666666666666666tjjjjjjj",
"jjjjjjjj...........@gggggggggggggggggggp6666666666666666tjjjjjjj",
"jjjjjjjj...........@gggggggggggggggggggp6666666666666666tjjjjjjj",
"jjjjjjjj...........@gggggggggggggggggggp6666666666666666tjjjjjjj",
"jjjjjjjj...........@gggggggggggggggggggp6666666666666666tjjjjjjj",
"jjjjjjjj...........@gggggggggggggggggggp6666666666666666tjjjjjjj",
"jjjjjjjj...........@gggggggggggggggggggp6666666666666666tjjjjjjj",
"jjjjjjjj...........@gggggggggggggggggggp6666666666666666tjjjjjjj",
"jjjjjjjj...........@gggggggggggggggggggp6666666666666666tjjjjjjj",
"jjjjjjjj...........@gggggggggggggggggggp6666666666666666tjjjjjjj",
"jjjjjjjj...........@gggggggggggggggggggp6666666666666666tjjjjjjj",
"jjjjjjjj...........@gggggggggggggggggggp6666666666666666tjjjjjjj",
"jjjjjjjj...........@gggggggggggggggggggp6666666666666666tjjjjjjj",
"jjjjjjjj...........@gggggggggggggggggggp6666666666666666tjjjjjjj",
"jjjjjjjj...........@gggggggggggggggggggp6666666666666666tjjjjjjj",
"jjjjjjjj...........@gggggggggggggggggggp6666666666666666tjjjjjjj",
"jjjjjjjj...........@gggggggggggggggggggp6666666666666666tjjjjjjj",
"jjj.XXX............@gggggggggggggggggggp6666666666666666:XXX.jjj",
"jjjo...............@gggggggggggggggggggp6666666666666666;...ojjj",
"jjjo...............@gggggggggggggggggggp6666666666668751%...ojjj",
"jjjo...............@gggggggggggggggggggp66668751>=$O........ojjj",
"jjj                #ggggggggggggggggaq4,<-*+                 jjj",
"jjjjjjjjjjjjjjjjjjjjggggggggggghjjjjjjjjjjjjjjjjjjjjjjjjjjjjjjjj",
"jjjjjjjjjjjjjjjjjjjjggghjjjjjjjjjjjjjjjjjjjjjjjjjjjjjjjjjjjjjjjj"
};
