/* XPM */
static char *result[] = {
/* columns rows colors chars-per-pixel */
"64 64 178 2 ",
"   c #3B2D5F",
".  c #3B2D61",
"X  c #3D3265",
"o  c #3E366A",
"O  c #3F396D",
"+  c #3F3E71",
"@  c #422F62",
"#  c #433365",
"$  c #4B3366",
"%  c #443768",
"&  c #4B3769",
"*  c #433A6C",
"=  c #4C3A6B",
"-  c #5B396C",
";  c #413D71",
":  c #643C6D",
">  c #6C3F70",
",  c #424274",
"<  c #4A4575",
"1  c #43467A",
"2  c #444C7E",
"3  c #4C4C7B",
"4  c #544471",
"5  c #544D7A",
"6  c #5A4D79",
"7  c #564875",
"8  c #5A507B",
"9  c #57507C",
"0  c #654272",
"q  c #764474",
"w  c #7B4676",
"e  c #62527D",
"r  c #894A7A",
"t  c #964F7E",
"y  c #984F7D",
"u  c #464E81",
"i  c #475285",
"p  c #4A5485",
"a  c #485689",
"s  c #495B8D",
"d  c #5B5781",
"f  c #555987",
"g  c #4A5F91",
"h  c #655A82",
"j  c #7A5783",
"k  c #5E658F",
"l  c #4D6394",
"z  c #4D6798",
"x  c #4E6A9D",
"c  c #526291",
"v  c #536C9C",
"b  c #5D6A96",
"n  c #6A638D",
"m  c #6D688F",
"M  c #75678B",
"N  c #736D92",
"B  c #7B6C90",
"V  c #64709A",
"C  c #7E7596",
"Z  c #7D7898",
"A  c #797598",
"S  c #4F6EA0",
"D  c #506EA0",
"F  c #5173A4",
"G  c #5277A8",
"H  c #547AAB",
"J  c #6675A3",
"K  c #A65683",
"L  c #B25A87",
"P  c #F3739B",
"I  c #EC7DA6",
"U  c #5683B3",
"Y  c #5985B4",
"T  c #598CBB",
"R  c #5887B8",
"E  c #6E8AAF",
"W  c #7C8CAC",
"Q  c #678AB7",
"!  c #6686B0",
"~  c #5C94C4",
"^  c #5E9BCA",
"/  c #649CC9",
"(  c #65A1CE",
")  c #61A5D5",
"_  c #63ACDB",
"`  c #65B0DF",
"'  c #76ABD4",
"]  c #66B3E2",
"[  c #68B7E6",
"{  c #67B9E7",
"}  c #69BDEC",
"|  c #6AC0EE",
" . c #6CC4F2",
".. c #6DC9F7",
"X. c #73C6F3",
"o. c #73CBF6",
"O. c #75CDF8",
"+. c #7ACFF8",
"@. c #7DC8F0",
"#. c #7CD0F8",
"$. c #8484A3",
"%. c #8C85A1",
"&. c #818BA9",
"*. c #8082A9",
"=. c #9C96AE",
"-. c #9E98AD",
";. c #8B9DB9",
":. c #9999B5",
">. c #A19DB1",
",. c #95A7BF",
"<. c #A9A4B9",
"1. c #B1AEBE",
"2. c #E383AD",
"3. c #9AADC3",
"4. c #9DB2C8",
"5. c #9FABD7",
"6. c #A2B7CB",
"7. c #BEBACA",
"8. c #B8B7C6",
"9. c #A5BDD2",
"0. c #87B8E2",
"q. c #C1BFCB",
"w. c #A7C5D8",
"e. c #B2CDDC",
"r. c #B8C5D4",
"t. c #82C7ED",
"y. c #9DC9E5",
"u. c #83CEF4",
"i. c #89CFF4",
"p. c #88D0F4",
"a. c #83D3F9",
"s. c #8AD6F9",
"d. c #8DD9F9",
"f. c #94D3F2",
"g. c #93D7F9",
"h. c #94DCFA",
"j. c #9CD8F6",
"k. c #AED9EF",
"l. c #B5DBEE",
"z. c #BCDDED",
"x. c #B7D3E3",
"c. c #A3D7F0",
"v. c #A7D9F4",
"b. c #9DE0FB",
"n. c #A4E4FB",
"m. c #ADE9FC",
"M. c #AAE7FC",
"N. c #B3E3FB",
"B. c #B6ECFD",
"V. c #B9EEFD",
"C. c #B8E5FB",
"Z. c #BEF0FD",
"A. c #C4C2CD",
"S. c #CECCD6",
"D. c #C6C2D1",
"F. c #D4D3DB",
"G. c #DADADF",
"H. c #C5DFED",
"J. c #DCDAE3",
"K. c #CCE1EB",
"L. c #C3E4EE",
"P. c #D1E2EB",
"I. c #DAE3EA",
"U. c #CCECFC",
"Y. c #C9ECF7",
"T. c #DFEFF9",
"R. c #C2F2FE",
"E. c #CDF6FD",
"W. c #CCF0F7",
"Q. c #D4FBFF",
"!. c #E5E6E7",
"~. c #E6E7E8",
"^. c #E6E8E8",
"/. c #ECF7FE",
"(. c #F6FCFF",
"). c #FDFEFF",
"_. c #F4F3F6",
"`. c None",
/* pixels */
"`.`.`.`.`.`.`.`.`.`.`.`.`.`.`.`.`.`.`.`.`.`.`.`.`.`.`.`.`.`.`.`.`.`.`.`.`.`.`.`.`.`.`.`.`.`.`.`.`.`.`.`.`.`.`.`.`.`.`.`.`.`.`.`.",
"`.`.`.`.`.`.`.`.`.`.`.`.`.`.`.`.`.`.`.`.`.`.`.`.`.`.`.`.`.`.`.`.`.`.`.`.`.`.`.`.`.`.`.`.`.`.`.`.`.`.`.`.`.`.`.`.`.`.`.`.`.`.`.`.",
"`.`.`.`.`.`.`.`.`.`.`.`.`.`.`.`.`.`.`.`.`.`.`.`.`.`.`.`.`.`.`.`.`.`.`.`.`.`.`.`.`.`.`.`.`.`.`.`.`.`.`.`.`.`.`.`.`.`.`.`.`.`.`.`.",
"`.`.`.`.`.`.`.`.`.`.`.`.`.`.o o s l 1 X `.`.`.`.`.`.`.`.`.`.`.X u z a X o `.`.`.`.`.`.`.`.`.`.`.`.`.`.`.`.`.`.`.`.`.`.`.`.`.`.`.",
"`.`.`.`.`.`.`.`.`.`.`.`.`.X H  ......._ ; `.`.`.`.`.`.`.`.o 2 ] ......| z % `.`.`.`.`.`.`.`.`.`.`.`.`.`.`.`.`.`.`.`.`.`.`.`.`.`.",
"`.`.`.`.`.`.`.`.`.`.`.`.o G ....h.n.s...{ * `.`.`.`.`.`.`.,  ...d.n.h.....l N `.`.`.`.`.`.`.`.`.`.`.`.`.`.`.`.`.`.`.`.`.`.`.`.`.",
"`.`.`.`.`.`.`.`.`.`.`.`.o  ...Z.Q.Q.Q.M...U Z `.`.`.`.`.o ^ ..m.Q.Q.Q.V...[ * !.`.`.`.`.`.`.`.`.`.`.`.`.`.`.`.`.`.`.`.`.`.`.`.`.",
"`.`.`.`.`.`.`.`.`.`.`.`.s ..h.Q.Q.Q.Q.Q.#._ 5 ~.`.`.`.`..  .#.Q.Q.Q.Q.Q.d...3 q.~.`.`.`.`.`.`.`.`.`.`.`.`.`.`.`.`.`.`.`.`.`.`.`.",
"`.`.`.`.`.`.`.`.`.`.`.`.l ..n.Q.Q.Q.Q.Q.s.] < ~.~.`.`.`..  .d.Q.Q.Q.Q.Q.j...p q.^.`.`.`.`.`.`.`.`.`.`.`.`.`.`.`.`.`.`.`.`.`.`.`.",
"`.`.`.`.`.`.`.`.`.`.`.`.1 ..s.Q.Q.Q.Q.Q.O.^ % A N o * o . ] +.Q.Q.Q.Q.Q.a...* F.^.`.`.`.`.`.`.`.`.`.`.`.`.`.`.`.`.`.`.`.`.`.`.`.",
"`.`.`.`.`.`.`.`.`.`.`.`.X _ ..n.Q.Q.Q.h...} T T T T T T T ....h.Q.Q.Q.n.o.~ 8 ^.~.`.`.`.`.`.`.`.`.`.`.`.`.`.`.`.`.`.`.`.`.`.`.`.",
"`.`.`.`.`.`.`.`.`.`.`.`.`.; [ ..#.s.o...........................O.s.+..._ * A.^.~.`.`.`.`.`.`.`.`.`.`.`.`.`.`.`.`.`.`.`.`.`.`.`.",
"`.`.`.`.`.`.`.`.`.`.`.`.`.`.* H _  .................................) F * 1.~.~.^.`.`.`.`.`.`.`.`.`.`.`.`.`.`.`.`.`.`.`.`.`.`.`.",
"`.`.`.`.`.`.`.`.`.`.`.`.`.`.`.Z * v ..............................T X $.F.^.~.~.`.`.`.`.`.`.`.`.`.`.`.`.`.`.`.`.`.`.`.`.`.`.`.`.",
"`.`.`.`.`.`.`.`.`.`.`.`.`.`.`.`.* ` ..............................| * S.^.^.^.`.`.`.`.`.`.`.`.`.`.`.`.`.`.`.`.`.`.`.`.`.`.`.`.`.",
"`.`.`.`.`.`.`.`.`.`.`.`.`.`.`.`.a ..................................G Z ^.^.`.`.`.`.`.`.`.`.`.`.`.`.`.`.`.`.`.`.`.`.`.`.`.`.`.`.",
"`.`.`.`.`.`.`.`.`.`.`.`.`.`.`.O ~ ..................................{ * ^.`.`.`.`.`.`.`.`.`.`.`.`.`.`.`.`.`.`.`.`.`.`.`.`.`.`.`.",
"`.`.`.`.`.`.`.`.`.`.`.`.`.`.`.X | ....................................3 r.^.`.`.`.`.`.`.`.`.`.`.`.`.`.`.`.`.`.`.`.`.`.`.`.`.`.`.",
"`.`.`.`.`.`.`.`.`.`.`.`.`.`.`.u ..........} ] ..........} [ ..........H %.!.`.`.`.`.`.`.`.`.`.`.`.`.`.`.`.`.`.`.`.`.`.`.`.`.`.`.",
"`.`.`.`.`.`.`.`.`.`.`.`.`.`.. F ..........2 . _ ........; . [ ...... ./ n !.`.`.`.`.`.`.`.`.`.`.`.`.`.`.`.`.`.`.`.`.`.`.`.`.`.`.",
"`.`.`.`.`.`.`.`.`.`.`.`.`.`.o T ..........z O [ ........a , } ........_ 2 ^.^.`.`.`.`.`.`.`.`.`.`.`.`.`.`.`.`.`.`.`.`.`.`.`.`.`.",
"`.`.`.`.`.`.`.`.`.`.`.`.`.`.X x T  ...............................| T Y o ,.1.`.`.`.`.`.`.`.`.`.`.`.`.`.`.`.`.`.`.`.`.`.`.`.`.`.",
"`.`.`.`.`.`.`.`.`.`.`.`.`.. X s S } ....2.5...............0.I X...] x x . K >.`.`.`.`.`.`.`.`.`.`.`.`.`.`.`.`.`.`.`.`.`.`.`.`.`.",
"`.`.`.`.`.`.`.`.`.`.`.`.`.. # s S } ......................o.X.....` x z . Z <.`.`.`.`.`.`.`.`.`.`.`.`.`.`.`.`.`.`.`.`.`.`.`.`.`.",
"`.`.`.`.`.`.`.`.`.`.`.`.`.`.6 p ~ ................................| T z 9 >.r.!.`.`.`.`.`.`.`.`.`.`.`.`.`.`.`.`.`.`.`.`.`.`.`.`.",
"`.`.`.`.`.`.`.`.`.`.`.`.. . X X , { .............................._ , o % 4 %.^.`.`.`.`.`.`.`.`.`.`.`.`.`.`.`.`.`.`.`.`.`.`.`.`.",
"`.`.`.`.`.`.`.`.`.`.`.`.`.`.`.5 u | ..............................| l 5 S.S.G.`.`.`.`.`.`.`.`.`.`.`.`.`.`.`.`.`.`.`.`.`.`.`.`.`.",
"`.`.`.`.`.`.`.`.`.`.`.`.`.`.~.!.8 # s v v U ] { G x G { } R v v c O 5 G.^.^.^.^.~.`.`.`.`.`.`.`.`.`.`.`.`.`.`.`.`.`.`.`.`.`.`.`.",
"`.`.`.`.`.`.`.`.`.`.`.`.`.`.`.`.% J.8.T T F * % . .   * * v R T ~ ^ O J.^.^.`.`.`.`.`.`.`.`.`.`.`.`.`.`.`.`.`.`.`.`.`.`.`.`.`.`.",
"`.`.`.`.`.`.`.`.`.`.`.`.`.`.`.% 1.).g.........H . .   G } ..........S V ^.`.`.`.`.`.`.`.`.`.`.`.`.`.`.`.`.`.`.`.`.`.`.`.`.`.`.`.",
"`.`.`.`.`.`.`.`.`.`.`.`.`.`.`.6 ).U.......o.n.Q.w.E y.E.b...........} O r.`.`.`.`.`.`.`.`.`.`.`.`.`.`.`.`.`.`.`.`.`.`.`.`.`.`.`.",
"`.`.`.`.`.`.`.`.`.`.`.`.`.`.% F.(.+.....O.R.Q.Q.Q.Q.Q.Q.Q.B...........U c ~.`.`.`.`.`.`.`.`.`.`.`.`.`.`.`.`.`.`.`.`.`.`.`.`.`.`.",
"`.`.`.`.`.`.`.`.`.`.`.`.`.`.h ).C... .o.R.Q.Q.Q.Q.Q.Q.Q.Q.Q.B.........| + 9.`.`.`.`.`.`.`.`.`.`.`.`.`.`.`.`.`.`.`.`.`.`.`.`.`.`.",
"`.`.`.`.`.`.`.`.`.`.`.`.`.# S.(.o.....p r.Q.Q.Q.Q.Q.Q.Q.Q.Q.6.c ........H v ~.`.`.`.`.`.`.`.`.`.`.`.`.`.`.`.`.`.`.`.`.`.`.`.`.`.",
"`.`.`.`.`.`.`.`.`.`.`.`.`.6 ).C.......( , ,.Q.Q.Q.Q.Q.Q.Q.W < _ ........} o x.`.`.`.`.`.`.`.`.`.`.`.`.`.`.`.`.`.`.`.`.`.`.`.`.`.",
"`.`.`.`.`.`.`.`.`.`.`.`.`._.).#.......o.` , w.Q.Q.Q.Q.Q.,.3 } ............z Q ~.`.`.`.`.`.`.`.`.`.`.`.`.`.`.`.`.`.`.`.`.`.`.`.`.",
"`.`.`.`.`.`.`.`.`.`.`.`.7 ).U.............( 9 Q.Q.Q.Q.W.* [ ..............~ a K.`.`.`.`.`.`.`.`.`.`.`.`.`.`.`.`.`.`.`.`.`.`.`.`.",
"`.`.`.`.`.`.`.`.`.`.`.`.e ).j...............3 e.Q.Q.Q.4.k ..................% y.~.`.`.`.`.`.`.`.`.`.`.`.`.`.`.`.`.`.`.`.`.`.`.`.",
"`.`.`.`.`.`.`.`.`.`.`.. =.).o...............V ,.Q.Q.Q.&.! ..................s / ~.`.`.`.`.`.`.`.`.# `.`.`.`.`.`.`.`.`.`.`.`.`.`.",
"`.`.`.`.`.`.`.`.`.`.`.% D.U.................6 m Q.Q.Q.6 n ..................H G P.~.`.`.`.`.`.`.@ . `.`.`.`.`.`.`.`.`.`.`.`.`.`.",
"`.`.`.`.`.`.`.`.`.`.`.% ~.N.......l l [ | J - = x.Q.,.0 & E  ._ a G ........^ s l.~.`.`.`.`.`.`.@ q 4 ~.`.`.`.`.`.`.`.`.`.`.`.`.",
"`.`.`.`.`.`.`.`.`.`.`.F.).g.......u.W O X 8 % = 6.Q.$.= % d X < ;.o.........] , j.~.`.`.`.`.@ @ y $ -.~.`.`.`.`.`.`.`.`.`.`.`.`.",
"`.`.`.`.`.`.`.`.`.`.`.-.).O.......+.Q.Q.Q.Q.L.w.W.Q.W.w.Y.Q.Q.Q.Q...........{ O p.^.`.`.@ @ r y $ 7 ~.~.^.`.`.`.`.`.`.`.`.`.`.`.",
"`.`.`.`.`.`.`.`.`.`.`.= (...........Q.Q.Q.Q.Q.Q.Q.Q.Q.Q.Q.Q.Q.Q.Z........... .o @.B # : K t $ $ 1.^.~.~.`.`.`.`.`.`.`.`.`.`.`.`.",
"`.`.`.`.`.`.`.`.`.`.`.% /...........B.Q.Q.Q.Q.Q.Q.Q.Q.Q.Q.Q.Q.Q.n........... .X X.K L q @ 4 8.^.^.!.^.`.`.`.`.`.`.`.`.`.`.`.`.`.",
"`.`.`.`.`.`.`.`.`.`.`.X /...........h.Q.Q.Q.Q.Q.Q.Q.Q.Q.Q.Q.Q.Q.a...........{ + X.= e %.G.^.~.~.^.!.`.`.`.`.`.`.`.`.`.`.`.`.`.`.",
"`.`.`.`.`.`.`.`.`.`.`.% I...........o.E.Q.Q.Q.Q.Q.Q.Q.Q.Q.Q.Q.Z.............) i X.F.~.~.^.^.^.~.`.`.`.`.`.`.`.`.`.`.`.`.`.`.`.`.",
"`.`.`.`.`.`.`.`.`.`.`.* 7.o...........j.Q.Q.Q.Q.Q.Q.Q.Q.Q.Q.Q.s.............H F p.^.~.~.^.`.`.`.`.`.`.`.`.`.`.`.`.`.`.`.`.`.`.`.",
"`.`.`.`.`.`.`.`.`.`.`.`.Z s.............B.Q.Q.Q.Q.Q.Q.Q.Q.Q.n...............p ^ j.~.~.`.`.`.`.`.`.`.`.`.`.`.`.`.`.`.`.`.`.`.`.`.",
"`.`.`.`.`.`.`.`.`.`.`.`.# v.............o.V.Q.Q.Q.Q.Q.Q.Q.m...............[ O  .l.~.^.`.`.`.`.`.`.`.`.`.`.`.`.`.`.`.`.`.`.`.`.`.",
"`.`.`.`.`.`.`.`.`.`.`.`.* :.................b.E.Q.Q.Q.R.d.................U z ..I.~.~.`.`.`.`.`.`.`.`.`.`.`.`.`.`.`.`.`.`.`.`.`.",
"`.`.`.`.`.`.`.`.`.`.`.`.`.6 a...................a.s.#.....................~ s f.~.~.`.`.`.`.`.`.`.`.`.`.`.`.`.`.`.`.`.`.`.`.`.`.",
"`.`.`.`.`.`.`.`.`.`.`.`.`.6 U............................................._ 1 j.~.~.`.`.`.`.`.`.`.`.`.`.`.`.`.`.`.`.`.`.`.`.`.`.",
"`.`.`.`.`.`.`.`.`.`.`.`.`.% T.......G + u s z F H U H F z l i 1 , ) ......~ s p.~.~.`.`.`.`.`.`.`.`.`.`.`.`.`.`.`.`.`.`.`.`.`.`.",
"`.`.`.`.`.`.`.`.`.`.`.`.`.* N { } x u ] ) ^ T U H F H U T ~ ) _ ^ ; R ] ~ O ) u.~.~.`.`.`.`.`.`.`.`.`.`.`.`.`.`.`.`.`.`.`.`.`.`.",
"`.`.`.`.`.`.`.`.`.`.`.`.`.. q O o x  .o.K.P.H.H.l.k.c.c.c.l.z.H.K.r.k , s ) ..l.~.~.`.`.`.`.`.`.`.`.`.`.`.`.`.`.`.`.`.`.`.`.`.`.",
"`.`.`.`.`.`.`.`.`.`.`.`.`.> P j ' O.s.K.^.~.~.~.~.~.~.~.~.~.~.~.^.^.^.4.' t.*.8.~.~.`.`.`.`.`.`.`.`.`.`.`.`.`.`.`.`.`.`.`.`.`.`.",
"`.`.`.`.`.`.`.`.`.`.`.`.@ r - B ~.~.^.^.~.~.`.`.`.`.`.`.~.~.`.`.`.`.`.`.M 0 w =.~.`.`.`.`.`.`.`.`.`.`.`.`.`.`.`.`.`.`.`.`.`.`.`.",
"`.`.`.`.`.`.`.`.`.`.`.`.`.@ M ~.~.~.~.~.~.`.`.`.`.`.`.`.`.`.`.`.`.`.`.`.`.C 4 A.~.`.`.`.`.`.`.`.`.`.`.`.`.`.`.`.`.`.`.`.`.`.`.`.",
"`.`.`.`.`.`.`.`.`.`.`.`.`.`.^.~.~.~.`.`.`.`.`.`.`.`.`.`.`.`.`.`.`.`.`.`.`.`.~.~.~.`.`.`.`.`.`.`.`.`.`.`.`.`.`.`.`.`.`.`.`.`.`.`.",
"`.`.`.`.`.`.`.`.`.`.`.`.`.`.`.~.`.`.`.`.`.`.`.`.`.`.`.`.`.`.`.`.`.`.`.`.`.`.`.`.~.`.`.`.`.`.`.`.`.`.`.`.`.`.`.`.`.`.`.`.`.`.`.`.",
"`.`.`.`.`.`.`.`.`.`.`.`.`.`.`.`.`.`.`.`.`.`.`.`.`.`.`.`.`.`.`.`.`.`.`.`.`.`.`.`.`.`.`.`.`.`.`.`.`.`.`.`.`.`.`.`.`.`.`.`.`.`.`.`.",
"`.`.`.`.`.`.`.`.`.`.`.`.`.`.`.`.`.`.`.`.`.`.`.`.`.`.`.`.`.`.`.`.`.`.`.`.`.`.`.`.`.`.`.`.`.`.`.`.`.`.`.`.`.`.`.`.`.`.`.`.`.`.`.`.",
"`.`.`.`.`.`.`.`.`.`.`.`.`.`.`.`.`.`.`.`.`.`.`.`.`.`.`.`.`.`.`.`.`.`.`.`.`.`.`.`.`.`.`.`.`.`.`.`.`.`.`.`.`.`.`.`.`.`.`.`.`.`.`.`."
};
