/* XPM */
static char *result[] = {
/* columns rows colors chars-per-pixel */
"64 64 146 2 ",
"   c #000000",
".  c #0A0605",
"X  c #070608",
"o  c #0C0709",
"O  c #0A0A0B",
"+  c #060C09",
"@  c #1A0C0E",
"#  c #08120E",
"$  c #0E0E11",
"%  c #0E1F18",
"&  c #0C1A14",
"*  c #121213",
"=  c #16151A",
"-  c #1B1B1B",
";  c #18161C",
":  c #261113",
">  c #2B1315",
",  c #37181B",
"<  c #3F1B1F",
"1  c #10241C",
"2  c #2C2318",
"3  c #33281C",
"4  c #1E1D25",
"5  c #211F27",
"6  c #2F1E23",
"7  c #142C22",
"8  c #18372B",
"9  c #183529",
"0  c #232323",
"q  c #24222B",
"w  c #2A2A2A",
"e  c #3B2F20",
"r  c #352227",
"t  c #3F3222",
"y  c #30302F",
"u  c #2B2934",
"i  c #292631",
"p  c #312F3B",
"a  c #343434",
"s  c #34313E",
"d  c #3D3D3D",
"f  c #421D21",
"g  c #443625",
"h  c #493A28",
"j  c #672D33",
"k  c #7C363E",
"l  c #204838",
"z  c #56442F",
"x  c #665137",
"c  c #363340",
"v  c #3A3645",
"b  c #3C3846",
"n  c #3E3A4A",
"m  c #413D4E",
"M  c #275844",
"N  c #2B614B",
"B  c #316F55",
"V  c #34765B",
"C  c #424241",
"Z  c #4C4C4C",
"A  c #50504F",
"S  c #454254",
"D  c #484457",
"F  c #4A475A",
"G  c #4E4A5D",
"H  c #535353",
"J  c #5A5A5A",
"K  c #775E40",
"L  c #4F4C60",
"P  c #524E63",
"I  c #555166",
"U  c #5A556C",
"Y  c #5C586F",
"T  c #5E5A71",
"R  c #615C75",
"E  c #645F78",
"W  c #636363",
"Q  c #6B6B6B",
"!  c #66617B",
"~  c #6A647F",
"^  c #737373",
"/  c #7B7B7A",
"(  c #863B43",
")  c #934049",
"_  c #A64853",
"`  c #AC4B56",
"'  c #A34751",
"]  c #B14D58",
"[  c #BD525E",
"{  c #C85764",
"}  c #D45C6A",
"|  c #DB5F6D",
" . c #EA6675",
".. c #E16270",
"X. c #FF6F7F",
"o. c #F26979",
"O. c #3E8D6C",
"+. c #398164",
"@. c #419371",
"#. c #48A27D",
"$. c #AB885D",
"%. c #6F6580",
"&. c #736681",
"*. c #796782",
"=. c #7B6882",
"-. c #816983",
";. c #8C6D85",
":. c #A07187",
">. c #A37288",
",. c #BA788C",
"<. c #CB7C8E",
"1. c #D67F90",
"2. c #D97F91",
"3. c #4CAC85",
"4. c #4FB38A",
"5. c #51B58C",
"6. c #52BA8F",
"7. c #56C396",
"8. c #58C699",
"9. c #5BCD9E",
"0. c #5ED6A4",
"q. c #60D9A7",
"w. c #848484",
"e. c #8C8C8C",
"r. c #8F8B9D",
"t. c #939393",
"y. c #999997",
"u. c #9B9B9A",
"i. c #A3A3A3",
"p. c #A9A9A7",
"a. c #ADADAD",
"s. c #B3B3B2",
"d. c #B9B9B7",
"f. c #BDBDBC",
"g. c #E98493",
"h. c #F28695",
"j. c #FF8997",
"k. c #FFCA8A",
"l. c #C0C0BE",
"z. c #C4C4C3",
"x. c #CECECC",
"c. c #D0D0CF",
"v. c #D4D4D3",
"b. c #D8D8D7",
"n. c #DCDCDC",
"m. c None",
/* pixels */
"m.m.m.m.m.m.m.m.m.m.m.m.m.m.m.m.m.m.m.m.m.m.m.m.m.m.m.m.m.m.m.m.m.m.m.m.m.m.m.m.m.m.m.m.m.m.m.m.m.m.m.m.m.m.m.m.m.m.m.m.m.m.m.m.",
"m.m.m.m.m.m.m.m.m.m.m.m.m.m.m.m.m.m.m.m.m.m.m.m.m.m.m.m.m.m.m.m.m.m.m.m.m.m.m.m.m.m.m.m.m.m.m.m.m.m.m.m.m.m.m.m.m.m.m.m.m.m.m.m.",
"m.m.m.m.m.m.m.m.m.m.m.m.m.m.m.m.m.m.m.m.m.m.    m.m.m.m.m.            m.m.m.m.m.    m.m.m.m.m.m.m.m.m.m.m.m.m.m.m.m.m.m.m.m.m.m.",
"m.m.m.m.m.m.m.m.m.m.m.m.m.m.m.m.m.m.m.m.                    w J J w                     m.m.m.m.m.m.m.m.m.m.m.m.m.m.m.m.m.m.m.m.",
"m.m.m.m.m.m.m.m.m.m.m.m.m.m.m.m.m.m.    X A w.w.Z o     * t.n.n.n.n.t.*     o H e.t.H o     m.m.m.m.m.m.m.m.m.m.m.m.m.m.m.m.m.m.",
"m.m.m.m.m.m.m.m.m.m.m.m.              - p.x.c.c.b.c.t.t.v.n.n.n.n.n.n.c.t.t.x.n.n.n.n.s.-               m.m.m.m.m.m.m.m.m.m.m.m.",
"m.m.m.m.m.m.m.m.m.m.      o 0 O     w s.x.x.b.b.n.n.n.n.b.n.n.n.n.n.n.n.n.n.n.n.n.n.n.n.f.w     * w o       m.m.m.m.m.m.m.m.m.m.",
"m.m.m.m.m.m.m.m.m.m.  # w.x.c.c.d.s.x.x.x.b.n.n.n.n.n.n.n.n.n.n.n.n.n.n.n.n.n.n.n.n.n.n.n.n.z.z.b.n.b.e.*   m.m.m.m.m.m.m.m.m.m.",
"m.m.m.m.m.m.m.m.m.  . i.x.x.x.x.x.x.x.v.b.n.n.n.n.n.n.n.n.n.n.n.n.n.n.n.n.n.n.n.n.n.n.n.n.n.n.n.n.n.n.n.a.X   m.m.m.m.m.m.m.m.m.",
"m.m.m.m.m.m.m.      Q x.x.x.x.x.x.x.c.b.n.n.n.n.n.n.n.n.n.n.n.n.n.n.n.n.n.n.n.n.n.n.n.n.n.n.n.n.n.n.n.n.b.^       m.m.m.m.m.m.m.",
"m.m.m.m.          H x.x.x.x.x.x.x.v.n.n.n.n.n.n.n.n.n.n.n.n.n.n.n.n.n.n.n.n.n.n.n.n.n.n.n.n.n.n.n.n.n.n.n.b.J           m.m.m.m.",
"m.m.m.    o Q u.l.c.x.x.x.x.x.x.b.n.n.n.n.n.n.n.n.n.n.n.n.n.n.n.n.n.n.n.n.n.n.n.n.n.n.n.n.n.n.n.n.n.n.n.n.n.n.x.p.^ o     m.m.m.",
"m.m.m.  - s.x.x.x.c.x.x.x.x.x.c.n.n.n.n.n.n.n.n.n.n.n.n.b.n.n.n.n.n.n.n.n.n.n.n.n.n.n.n.n.n.n.n.n.n.n.n.n.n.n.n.n.n.l.-   m.m.m.",
"m.m.    y.x.x.x.x.x.x.x.x.x.c.b.n.n.n.n.n.n.n.n.n.n.f.e.W H C a a C A W e.f.n.b.n.n.n.n.n.n.n.n.n.n.n.n.n.n.n.n.n.n.n.i.    m.m.",
"m.m.  1 x.c.x.x.x.x.x.x.x.x.n.n.n.n.n.n.n.n.b.a.J O                         $ J a.n.n.n.n.n.n.n.n.n.n.n.n.n.n.n.n.n.n.n.-   m.m.",
"m.m.X h x.x.x.x.x.x.x.x.x.b.n.n.n.n.n.n.n.u.w     X 9 N O.#.5.3.X o { ' k f .     w u.n.n.n.n.n.n.n.n.n.n.n.n.n.n.n.n.n.C   m.m.",
"m.    A x.x.x.x.x.x.x.x.v.n.n.n.n.n.n.v.H     7 +.9.q.q.q.q.q.q.8   } X.X.X.o.' ,     H b.n.n.n.n.n.n.n.n.n.n.n.n.n.n.n.U     m.",
"m.  ; d.x.x.x.x.x.x.x.c.n.n.n.n.n.n.v.d   # O.q.q.q.q.q.q.q.q.q.l   { X.X.X.X.X.X.` @   d b.n.n.n.n.n.n.n.n.n.n.n.n.n.n.x.-   m.",
"    e.x.x.x.x.x.x.x.x.b.n.n.n.n.n.n.W   1 8.0.q.q.q.q.q.q.q.q.q.%    .2.X.X.X.X.X.X. .>   W n.n.n.n.n.n.n.n.n.n.n.n.n.n.n.t.    ",
"  O x.x.x.x.x.x.x.x.c.n.n.n.n.n.n.x.. + 7.q.q.q.q.q.q.0.5.3.6.O.  > { } X.X.X.X.X.X.X...o X x.n.n.n.n.n.n.n.n.n.n.n.n.n.n.b.X   ",
"  * x.x.x.x.c.x.c.x.b.n.n.n.n.n.n.t.  M q.q.q.q.q.q.O.&                 @ ` X.X.X.X.X.X.j   t.n.n.n.n.n.n.n.n.n.n.n.n.n.n.n.*   ",
"    l.x.x.x.x.x.c.c.n.n.n.n.n.n.n.w.  B q.q.q.q.q.@.    g z g g t h z g     ] X.X.X.X.X.(   w.n.n.n.n.n.n.n.n.n.n.n.n.n.n.x.    ",
"    Q x.x.x.x.x.c.b.n.n.n.n.n.n.n.p.  8 q.q.q.q.0.%   $.k.k.k.k.k.k.k.k.$.  : X.X.X.X.X.f   p.n.n.n.n.n.n.n.n.n.n.n.n.n.n.^     ",
"m.  X u.x.x.x.x.c.n.n.n.n.n.n.n.n.n.0   O.q.q.q.8.  2 k.k.k.k.k.k.k.k.k.k.2    .X.X.X.)   5 b.n.n.n.n.n.n.n.n.n.n.n.n.n.p.X   m.",
"m.m.  C x.x.x.x.v.n.n.n.n.n.n.n.n.n.i.X   V 0.q.6.  g k.k.k.k.k.k.k.k.k.k.g   | 2.X.( .   p.n.n.n.n.n.n.n.n.n.n.n.n.n.n.Z   m.m.",
"m.m.  w x.x.x.x.b.n.n.n.n.n.n.n.n.n.b.t.X   8 #.6.  g k.k.k.k.k.k.k.k.k.k.h   | [ f . . t.n.n.n.n.n.n.n.n.n.n.n.n.n.n.n.w   m.m.",
"m.m.  O z.c.x.x.n.n.n.n.n.n.n.n.n.n.n.n.s.w     %   t k.k.k.k.k.k.k.k.k.k.t   :     w s.n.n.n.n.n.n.n.n.n.n.n.n.n.n.n.v.o   m.m.",
"m.m.    / x.x.v.n.n.n.n.n.n.n.n.n.n.n.n.n.n.w.w       . e z x x x x z 3 X       w w.b.n.n.n.n.n.n.n.n.n.n.n.n.n.n.n.n.w.    m.m.",
"m.m.    * f.c.b.n.n.n.n.n.n.n.n.n.n.n.n.n.n.n.n.s.Q M @ .             . * l ^ d.n.n.n.n.n.n.n.n.n.n.n.n.n.n.n.n.n.n.x.*     m.m.",
"m.m.      a z.b.n.n.n.n.n.n.n.n.n.n.n.n.n.n.n.n.n.n.n.n.z.a.i.y.t.i.s.z.n.n.n.n.n.n.n.n.n.n.n.n.n.n.n.n.n.n.n.n.n.v.a       m.m.",
"m.m.  4 *   y z.n.n.n.n.n.n.n.n.n.n.n.n.n.n.n.n.n.n.n.n.n.n.n.n.n.n.n.n.n.n.n.n.n.n.n.n.n.n.n.n.n.n.n.n.n.n.n.n.z.a   ; 4   m.m.",
"m.m.  0 I ;   O w.b.n.n.n.n.n.n.n.n.n.n.n.n.n.n.n.n.n.n.n.n.n.n.n.n.n.n.n.n.n.n.n.n.n.n.n.n.n.n.n.n.n.n.n.n.b.w.O   ; R q   m.m.",
"m.m.  4 T U i     7 =.c.n.n.n.n.n.n.n.n.n.n.n.n.n.n.n.n.n.n.n.n.n.n.n.n.n.n.n.n.n.n.n.n.n.n.n.n.n.n.n.n.c.3.,   . p T %.5   m.m.",
"m.m.  4 Y T T P 5   + X N r.z.n.n.n.n.n.n.n.n.n.n.n.n.n.n.n.n.n.n.n.n.n.n.n.n.n.n.n.n.n.n.n.n.n.n.x.e.Z X   . 5 U E %.%.q X m.m.",
"m.m.  4 Y Y T %.~ I c X X X X 4 Z / p.z.n.n.n.n.n.n.n.n.n.n.n.n.n.n.n.n.n.n.n.n.n.n.n.n.x.a.x.n.d.X     X u I ~ &.%.%.%.i   m.m.",
"m.m.  4 Y Y T %.~ ~ %.%.m i = $         X 0 b H E _ 3.t.r.r.i.u.i.y.t.w.w./ ^ Q L b q $     y r.~ 4 u F E %.%.~ %.%.E %.q   m.m.",
"m.m.  4 T Y T %.~ ~ ~ ~ ! %.! Y D c q = +               $ X X X                 $ X X X = 7 S %.%.~ ~ ~ ~ ~ ~ ~ %.%.%.E q   m.m.",
"m.m.  4 U T T %.~ ~ ~ ~ %.%.%.! %.~ ~ ~ %.Y U L S n n b c l c i u u p p v v n S L U %.%.%.E %.%.~ ~ ~ ~ ~ ~ ~ ~ %.%.%.%.q   m.m.",
"m.m.  4 T U T &.~ ~ ~ ~ %.%.%.@.~ ~ ~ ~ %.%.%.%.%.E %.%.~ ~ ~ ~ ~ ~ ~ ~ ~ ~ ~ ~ %.! R %.%.%.Y %.%.~ ~ ~ ~ ~ ~ ~ %.T %.%.q   m.m.",
"m.m.  q U T T E ~ ~ ~ ~ %.%.%.%.~ ~ ~ ~ T %.%.%.%.%.%.%.~ ~ ~ ~ ~ ~ ~ ~ ~ ~ ~ ~ E %.%.%.%.%.%.%.~ ~ ~ ~ ~ ~ ~ ~ %.%.%.%.q   m.m.",
"m.m.  4 T Y Y ! %.%.%.Y %.%.%.! ~ ~ ~ ~ ~ ~ ~ ~ ! ! %.~ ~ ~ ~ ~ ~ ~ ~ ~ %.E %.! ! %.O.%.%.%.%.%.%.! ! %.%.%.%.! %.%.%.! 8 X m.m.",
"m.m.  4 T T T E %.%.%.%.T %.! ! ~ ~ ~ ~ ~ ~ ~ ~ %.! ~ ~ ~ ~ ~ ~ ~ ~ ~ ~ %.R ! %.%.! %.%.%.%.%.U ! %.! ! %.%.O.%.%.%.E %.7 X m.m.",
"m.m.  4 Y T Y T %.%.%.%.%.%.! %.~ ~ ~ ~ ~ %.~ ~ ! %.%.E ~ ~ ~ ~ ~ ~ ~ ~ %.%.%.%.%.%.%.%.%.%.%.%.%.! ! %.%.%.! ! %.%.%.%.q X m.m.",
"m.m.  4 Y T T T R %.%.%.%.E %.! ~ ~ ~ ! + q ~ ~ %.! ! %.~ ~ ~ ~ ~ ~ ~ ~ %.Y %.%.%.%.i $ %.%.%.%.~ ~ ! %.%.%.%.! %.Y %.R q X m.m.",
"m.m.  4 Y Y Y Y ! %.%.E ~ ~ %.~ ~ ~ %.R   ; ~ ~ Y %.%.%.%.%.%.%.~ ~ %.%.%.%.%.%.%.%.; X %.%.%.%.~ ~ ~ ~ E %.%.%.%.%.T %.q   m.m.",
"m.m.  4 Y Y Y Y E ! %.%.~ ~ ~ ~ &.-.=.R   ; %.~ %.%.%.R 4 = P %.~ I * 5 %.%.%.T R %.; X Y %.-.&.~ ~ ~ ~ %.%.! ! %.%.%.%.q   m.m.",
"m.m.  4 Y Y Y Y T %.~ ~ ~ ~ ;.2.j.j.j.g.6 b ! %.%.%.%.%.i X X ; =     u E %.%.%.%.%.c p 2.j.j.j.2.=.~ ~ %.T %.%.%.%.%.%.i   m.m.",
"m.m.  4 Y Y Y Y U ! ~ ~ %.:.j.j.j.j.j.j.j.g.&.%.%.%.%.%.%.v $ $   O v %.%.%.%.%.%.%.<.h.j.j.j.j.j.h.*.~ %.%.Y %.%.%.%.%.q   m.m.",
"m.m.  4 Y Y Y Y Y T ~ ~ =.j.j.j.j.j.j.j.j.j.<.%.%.%.%.%.~ ~ ! +.Y ! ~ ~ %.! %.! %.<.j.j.j.j.j.j.j.j.j.*.~ ~ ~ ~ ~ ~ ~ ~ 8 $ m.m.",
"m.m.  4 Y Y Y Y Y Y ! ~ :.j.j.j.j.j.j.j.j.j.h.%.%.%.%.%.~ ~ %.~ ~ ~ ~ ~ ~ %.! ! %.j.j.j.j.j.j.j.j.j.j.>.~ ~ ~ ~ ~ ~ ~ ~ 4 $ m.m.",
"m.m.  * U T Y Y Y Y T ~ :.j.j.j.j.j.j.j.j.j.j.%.Y %.%.%.~ ~ ~ ~ ~ ~ ~ ~ ~ ~ ! %.%.h.j.j.j.j.j.j.j.j.j.>.~ ~ ~ ~ ~ ~ ~ ~ = X m.m.",
"m.m.    I Y Y Y Y Y Y E =.j.j.j.j.j.j.j.j.j.<.%.%.%.%.%.~ ~ ~ ~ ~ ~ ~ ~ ~ ~ %.! %.<.j.j.j.j.j.j.j.j.j.*.~ ~ ~ ~ ~ ~ ~ T X X m.m.",
"m.m.    u T U T Y Y Y T ~ :.j.j.j.j.j.j.2.p.%.! %.T %.! ! %.~ ~ ~ ~ ~ ~ %.R %.%.%.%.g.h.j.j.j.j.j.j.=.%.%.%.~ ~ %.%.%.p X   m.m.",
"m.m.m.  X D T T Y Y Y Y T %.;.1.h.j.j.h.<.%.%.%.%.%.! %.~ ~ ~ ~ ~ ~ ~ ~ %.Y %.E %.%.&.,.g.g.j.j.1.;.%.%.%.%.~ ~ %.%.I     m.m.m.",
"m.m.m.m.  O G T Y Y Y Y T T %.~ %.%.%.%.%.%.%.! %.%.! ! ~ ~ ~ ~ ~ ~ ~ ~ %.%.%.%.%.%.%.%.%.%.%.%.%.%.%.%.%.%.%.~ %.I $   m.m.m.m.",
"m.m.m.m.    X m Y Y Y T T U ! ~ %.%.%.%.%.%.E %.R %.! %.~ ~ ~ ~ ~ ~ ~ ~ %.%.%.%.%.%.%.%.%.%.%.%.%.%.%.%.%.%.%.~ D +     m.m.m.m.",
"m.m.m.m.m.      7 L T T Y Y T ! %.%.%.%.%.%.T %.%.%.%.%.%.%.E %.~ ~ ~ ~ ~ ~ ~ ~ %.E %.%.%.%.%.%.~ ~ ~ %.%.%.U i       m.m.m.m.m.",
"m.m.m.m.m.m.m.      4 S Y Y Y T T %.%.%.%.%.%.%.%.Y %.%.%.%.%.%.~ ~ ~ ~ ~ ~ ~ ~ %.%.%.%.T %.%.%.~ ~ ~ ~ L q       m.m.m.m.m.m.m.",
"m.m.m.m.m.m.m.m.m.      n T Y U T %.%.%.%.%.%.%.R %.%.%.%.%.%.%.~ ~ ~ ~ ~ ~ ~ ~ ! %.~ %.%.%.%.%.T S u o       m.m.m.m.m.m.m.m.m.",
"m.m.m.m.m.m.m.m.m.m.m.  m.T c   O 4 c D F Y %.%.E %.%.%.%.T ! %.~ ~ ~ ~ ~ ~ ~ ~ %.%.T P M c 4 X           m.m.m.m.m.m.m.m.m.m.m.",
"m.m.m.m.m.m.m.m.m.m.m.m.m.m.m.              X $ 1 4 q i u p p p p p c u l q 4 = $                   m.m.m.m.m.m.m.m.m.m.m.m.m.m.",
"m.m.m.m.m.m.m.m.m.m.m.m.m.m.m.m.m.m.m.          X X   X               X $ X X X           m.m.m.m.m.m.m.m.m.m.m.m.m.m.m.m.m.m.m.",
"m.m.m.m.m.m.m.m.m.m.m.m.m.m.m.m.m.m.m.m.m.m.m.m.m.m.m.m.m.m.m.m.m.m.m.m.m.m.m.m.m.m.m.m.m.m.m.m.m.m.m.m.m.m.m.m.m.m.m.m.m.m.m.m.",
"m.m.m.m.m.m.m.m.m.m.m.m.m.m.m.m.m.m.m.m.m.m.m.m.m.m.m.m.m.m.m.m.m.m.m.m.m.m.m.m.m.m.m.m.m.m.m.m.m.m.m.m.m.m.m.m.m.m.m.m.m.m.m.m."
};
