/* XPM */
static char *result[] = {
/* columns rows colors chars-per-pixel */
"64 64 166 2 ",
"   c #463F3F",
".  c #493C45",
"X  c #4B3A48",
"o  c #562E5D",
"O  c #582E5F",
"+  c #523355",
"@  c #533558",
"#  c #78365D",
"$  c #5A2B64",
"%  c #5F266D",
"&  c #5E2D6A",
"*  c #5E3566",
"=  c #5D3F60",
"-  c #5E3068",
";  c #5F3276",
":  c #62276D",
">  c #63296D",
",  c #6A296D",
"<  c #76276C",
"1  c #752B6E",
"2  c #632C72",
"3  c #643275",
"4  c #673878",
"5  c #783376",
"6  c #763275",
"7  c #494344",
"8  c #474040",
"9  c #5C4D59",
"0  c #5D445E",
"q  c #5B5555",
"w  c #5F5858",
"e  c #6B5D55",
"r  c #615B5B",
"t  c #6A6057",
"y  c #69605C",
"u  c #5E4E73",
"i  c #615F64",
"p  c #655576",
"a  c #5F6569",
"s  c #5C6F6A",
"d  c #686364",
"f  c #6F6868",
"g  c #766E6E",
"h  c #6F6F74",
"j  c #777476",
"k  c #667370",
"l  c #B45F34",
"z  c #E57F12",
"x  c #C76B26",
"c  c #823F58",
"v  c #83276C",
"b  c #842E6F",
"n  c #95276C",
"m  c #96286C",
"M  c #9E346F",
"N  c #883B7B",
"B  c #873A7B",
"V  c #9D3470",
"C  c #AF286B",
"Z  c #B1286B",
"A  c #BA296B",
"S  c #A2366F",
"D  c #A63670",
"F  c #BD3B71",
"G  c #B43970",
"H  c #CB2A6B",
"J  c #C7296B",
"K  c #DC2A6B",
"L  c #D12B6B",
"P  c #C53D71",
"I  c #CD3E71",
"U  c #E22A6A",
"Y  c #EA2B6A",
"T  c #F1356D",
"R  c #F53B6F",
"E  c #E63F70",
"W  c #F73E70",
"Q  c #EE306C",
"!  c #8F464D",
"~  c #AF754B",
"^  c #B27145",
"/  c #D44071",
"(  c #D94171",
")  c #E34472",
"_  c #EA4978",
"`  c #F24773",
"'  c #FA4371",
"]  c #FF4A73",
"[  c #FE537D",
"{  c #62B76A",
"}  c #FF9100",
"|  c #FDA816",
" . c #FABE2C",
".. c #F7AB36",
"X. c #97825E",
"o. c #B28457",
"O. c #AD8178",
"+. c #F8C64E",
"@. c #FED843",
"#. c #613C84",
"$. c #644789",
"%. c #774A86",
"&. c #624D97",
"*. c #695C96",
"=. c #7F558E",
"-. c #687096",
";. c #6354A0",
":. c #646AB9",
">. c #6569B7",
",. c #617FA9",
"<. c #667BCB",
"1. c #9D4583",
"2. c #B9548D",
"3. c #836D8B",
"4. c #8B669A",
"5. c #897799",
"6. c #8D6DA1",
"7. c #C0578F",
"8. c #C1588F",
"9. c #C95B92",
"0. c #D85C91",
"q. c #FD5480",
"w. c #FD5A85",
"e. c #FC5D89",
"r. c #D46196",
"t. c #DC6599",
"y. c #FC618E",
"u. c #E96C9E",
"i. c #FB6593",
"p. c #FA6D9C",
"a. c #F06FA0",
"s. c #F973A3",
"d. c #EF6EA0",
"f. c #688692",
"g. c #788890",
"h. c #6F83B4",
"j. c #618BB2",
"k. c #7399C5",
"l. c #79BADF",
"z. c #6895E8",
"x. c #6AA9FF",
"c. c #6AA2F7",
"v. c #79BBE0",
"b. c #7CC8EA",
"n. c #7ED8F6",
"m. c #7DD1F0",
"M. c #939093",
"N. c #918888",
"B. c #9C89B6",
"V. c #9D8BBA",
"C. c #9B99AB",
"Z. c #AB94BB",
"A. c #A4A5AA",
"S. c #A3A9B4",
"D. c #F5D583",
"F. c #F1E2B7",
"G. c #BBACCC",
"H. c #ACA3CA",
"J. c #D9D7EA",
"K. c #CBD6F1",
"L. c #D5E8FE",
"P. c #D1E0F8",
"I. c #EFF0ED",
"U. c #E6EAF8",
"Y. c #EDF5FF",
"T. c None",
/* pixels */
"g g g g g g g g g g g g g g g g g g g g g g g g g g g g g g g g q q q q q q q q q q q q q q q q q q q q q q q q q q q q q q q q ",
"g g g g g g g g g g g g g g g g g g g g g g g g g g g g g g g g q q q q q q q q q q q q q q q q q q q q q q q q q q q q q q q q ",
"g g g g g g g g g g g g g g g g g g g g g g g g g g g g h g g h q q q q q q q q q q q q q q q q q q q q q q q q q q q q q q q q ",
"g g g g f f f j g.g.g.g.g.g.g.g.g.g.g.g.g.g.g.g.g.g.g.g.g.g.g f r q i i i i i i i i i i i i i i i i i i i i d a w w w w w i w w ",
"T.T.T.T.q q q f.n.n.n.n.n.n.n.n.m.n.n.n.n.n.n.n.n.n.n.n.n.n.a q   7 x.x.x.x.x.x.x.x.x.x.x.x.x.x.x.x.x.x.x.x.x.x.j.      T.T.T.T.",
"T.T.T.T.q q q f.n.n.n.m.k.-.$.#.$.*.h.v.n.n.n.n.n.n.n.n.n.n.a q   7 x.x.x.x.x.x.x.x.x.x.z.:.&.#.#.#.;.<.c.x.x.x.j.    8 T.T.T.T.",
"T.T.T.T.q q q f.n.m.,.3 % % : % % % % % *.H.n.n.n.n.n.n.n.n.d q   7 x.x.x.x.x.x.x.x.z.&.% % % % % % % % 2 :.c.x.j.  8 8 T.T.T.T.",
"T.T.T.T.q q q f.v.$.% % B 2.9.q.) P N % ; #.k.n.n.n.n.n.n.n.a q   7 x.x.x.x.x.x.x.<.2 % , S I ) E H C v % % #.z.j.  8 8 T.T.T.T.",
"T.T.T.T.q q q -.4 : 5 0.s.i.] ] ] ] ] ` V : % ,.n.n.n.n.n.n.a q   7 x.x.x.x.x.x.:.% % M ` ] ] ] ] ] T Y J < % 3 j.      T.T.T.T.",
"T.T.T.T.q q q ; : B a.s.p.] ] ] ] ] ] ] ] F : % h.n.n.n.n.n.a q   7 x.x.x.x.x.:.% % F ] ] ] ] ] ] ] ] T Y U v % ;       T.T.T.T.",
"T.T.T.T.q q 0 % 5 a.s.s.] ] ] ] ] ] ] ] ] ] P : % h.n.n.n.n.a q   7 x.x.x.x.:.% > P ] ] ] ] ] ] ] ] ] ] Y Y U < % +     T.T.T.T.",
"T.T.T.T.q q % % 0.s.s.e.] ] ] ] ] ] ] ] ] ] ] P % % h.n.n.n.a q   7 x.x.x.:.% > P ] ] ] ] ] ] ] ] ] ] ] W Y Y J % $ .   T.T.T.T.",
"T.T.T.T.q 0 % B s.s.s.] ] ] ] ] ] ] ] ] ] ] ] ] P : % ,.n.n.d q   7 x.x.:.% > P ] ] ] ] ] ] ] ] ] ] ] ] ] Y Y Y v % X   T.T.T.T.",
"T.T.T.T.q * % 2.s.s.i.] ] ] ] ] ] ] ] ] ] ] ] ] [ P : 2 h.n.d q . 7 x.:.% % P ] ] ] ] ] ] ] ] ] ] ] ] ] ] T Y Y Z % o 8 T.T.T.T.",
"T.T.T.T.q & % 0.s.s.e.] ] ] ] ] ] ] ] ] ] ] ] ] ] ] P : % ,.a q   7 :.% % P ] ] ] ] ] ] ] ] ] ] ] ] ] ] ] T Y Y H : $ . T.T.T.T.",
"T.T.T.T.q 2 % u.s.s.e.] ] ] ] ] ] ] ] ] ] ] ] ] ] ] ] P : % u q   + % % P ] ] ] ] ] ] ] ] ] ] ] ] ] ] ] ] W Y Y K % $   T.T.T.T.",
"T.T.T.T.q - > t.s.s.e.] ] ] ] ] ] ] ] ] ] ] ] ] ] ] ] ] P : % = + % > P ] ] ] ] ] ] ] ] ] ] ] ] ] ] ] ] ] W Y Y L % $   T.T.T.T.",
"T.T.T.T.q * % 9.s.s.i.] ] ] ] ] ] ] ] ] ] ] ] ] ] ] ] ] ] P : % % : P ] ] ] ] ] ] ] ] ] ] ] ] ] ] ] ] G F T Y Y A % O   T.T.T.T.",
"T.T.T.T.q 0 % 1.s.s.p.] ] ] ] ] ] ] ] ] ] ] ] ] ] ] ] ] ] ] P : % P ] ] ] ] ] ] ] ] ] ] ] ] ] ] ] ] S % , Y Y Y n % +   T.T.T.T.",
"T.T.T.T.q 9 > 2 u.s.s.[ ] ] ] ] ] ] ] ] ] ] ] ] ] ] ] ] ] ] ] ( / ] ] ] ] ] ] ] ] ] ] ] ] ] ] ] ] S : : I Y Y K , % X   T.T.T.T.",
"T.T.T.T.q q * % 1.s.s.i.] ] ] ] ] ] ] ] ] ] ] ] ] ] ] ] ] ] ] ] ] ] ] ] ] ] ] ] ] ] ] ] ] ] ] ] S % , I T Y Y n : o     T.T.T.T.",
"T.T.T.T.q q 9 : : 2.s.s.e.] ] ] ] ] ] ] ] ] ] ] ] ] ] ] ] ] ] ] ] ] ] ] ] ] ] ] ] ] ] ] ] ] ] S % : I W Y Y Z % % .     T.T.T.T.",
"T.T.T.T.q q q p % : 7.s.s.[ ] ] ] ] ] ] ] ] ] ] ] ] ] ] ] ] ] ] ] ] ] ] ] ] ] ] ] ] ] ] ] ] S % : I ' Y Y A : % u 7 7   T.T.T.T.",
"T.T.T.T.q q q w = % : 8.s.s.q.] ] ] ] ] ] ] ] ] ] ] ] ] ] ] ] ] ] ] ] ] ] ] ] ] ] ] ] ] ] S % > I ' Y Y A : % + 8 8 7   T.T.T.T.",
"T.T.T.T.q q q q q 0 % % 8.s.s.q.] ] ] ] ] ] ] ] ] ] ] ] ] ] ] ] ] ] ] ] ] ] ] ] ] ] ] ] S % : / W Y Y A : % +   8 8 7 8 T.T.T.T.",
"T.T.T.T.q q q q q q = % 2 2.s.s.q.] ] ] ] ] ] ] ] ] ] ] ] ] ] ] ] ] ] ] ] ] ] ] ] ] ] ' > > / ' Y Y A : % +     . 8 7   T.T.T.T.",
"T.T.T.T.q q w h A.A.A.3.2 % 8.s.s.q.] ] ] ] ] ] ] ] ] ] ] ] ] ] ] ] ] ] ] ] ] ] ] ] ] ] / ) ' Y Y A : : u h h h i 7 8   T.T.T.T.",
"T.T.T.T.q q q M.Y.Y.Y.Y.Z.: : 2.s.s.[ ] ] ] ] ] ] ] ] ] ] ] ] ] ] ] ] ] ] ] ] ] ] D < ` ] ' Y Y A , : B.L.L.L.L.S.      T.T.T.T.",
"T.T.T.T.q q q M.Y.Y.Y.Y.Y.Z.> : 2.s.s.q.] ] ] ] ] ] ] ] ] ] ] ] ] ] ] ] ] ] ] ] V % , _ ' Y Y A : % B.L.L.L.L.L.S.      T.T.T.T.",
"T.T.T.T.q q w M.Y.Y.Y.Y.Y.Y.Z.% : 8.s.s.q.] ] ] ] ] ] ] ] ] ] ] ] ] ] ] ] ] ] P % , I ' Y Y A : % B.L.L.L.L.L.L.S.    8 T.T.T.T.",
"T.T.T.T.q q q M.Y.Y.Y.Y.Y.Y.Y.Z.: : 8.s.a.q.] ] ] ] ] ] ] ] ] ] ] ] ] ] ] ] ] ( b / ' Y Y A : % k L.L.L.L.L.L.L.S.  8 8 T.T.T.T.",
"T.T.T.T.q q q M.Y.Y.Y.Y.Y.Y.Y.Y.Z.% : 0.s.s.q.] ] ] ] ] ] ] ] ] ] ] ] ] ] ] ] ] ] ' Y Y J : % s { L.L.L.L.L.L.L.S.  8 8 T.T.T.T.",
"T.T.T.T.q q q M.Y.Y.Y.Y.Y.Y.Y.Y.Z.: % 0.s.s.q.] ] ] ] ] ] ] ] ] ] ] ] ] ] ] ] ] ] ' Y Y J > % s { L.L.L.L.L.L.L.S.      T.T.T.T.",
"T.T.T.T.q q q M.Y.Y.Y.Y.Y.Y.Y.Z.% 2 2.s.s.q.] ] ] ] ] ] ] ] ] ] ] ] ] ] ] ] ] ] ] ] ' Y Y A : % s L.L.L.L.L.L.L.S.      T.T.T.T.",
"T.T.T.T.q q q M.Y.Y.Y.Y.Y.Y.Z.: : 2.s.s.q.] ] ] ] ] ] ] ] ] ] ] ] ] ] ] ] ] ] ] ] ] ] ' Y Y A : % B.L.L.L.L.L.L.S.      T.T.T.T.",
"T.T.T.T.q q q M.Y.Y.Y.Y.Y.Z.: : 8.s.s.q.] ] ] ] ] ] ] ] ] ] ] ] ] ] ] ] ] ] ] ] ] ] ] ] ' Y Y A : : B.L.L.L.L.L.S.      T.T.T.T.",
"T.T.T.T.q q q M.Y.Y.Y.Y.Z.% : 2.s.s.q.] ] ] ] ] ] ] ] ] ] ] ] ] ] ] ] ] ] ] ] ] ] ] ] ] ] ' Y Y A : % B.L.L.L.L.S.      T.T.T.T.",
"T.T.T.T.q q q M.Y.Y.Y.Z.% : 8.s.s.q.] ] ] ] ] ] ] ] ] ] ] ] ] ] ] ] ] ] ] ] ] ] ] ] ] ] ] ] ' Y Y A : : B.L.L.L.S.      T.T.T.T.",
"T.T.T.T.q q q M.Y.Y.Z.> : 7.s.s.q.] ] ] ] ] ] ] ] ] ] ] ] ] ] ] ] ] ] ] ] ] ] ] ] ] ] ] ] ] ] ' Y Y A : % B.L.L.S.      T.T.T.T.",
"T.T.T.T.q q q M.Y.Z.% > 7.s.s.q.] ] ] ] ] ] ] ] ] ] ] ] ] ] ] ] ] ] ] ] ] ] ] ] ] ] ] ] ] ] ] ] ' Y Y A : % B.L.S.      T.T.T.T.",
"T.T.T.T.w q q M.Z.% : 8.s.s.q.] ] ] ] ] ] ] ] ] ] ] ] ] ] ] ] ] ] ] ] ] ] ] ] ] ] ] ] ] ] ] ] ] ] ' Y Y A : % V.S.      T.T.T.T.",
"T.T.T.T.q q e -.% : 2.s.s.q.] ] ] ] ] ] ] ] ] ] ] ] ] ] ] ] ] ] ] ] ] ] ] ] ] ] ] ] ] ] ] ] ] ] ] ] ' Y Y A : % 5.      T.T.T.T.",
"T.T.T.T.q q 9 : % 2.s.s.e.] ] ] ] ] ] ] ] ] ] ] ] ] ] ] ] ] ] ] ] ] ] ] ] ] ] ] ] ] ] ] ] ] ] ] ] ] ] R Y Y Z % > . 8   T.T.T.T.",
"T.T.T.T.q q * : 1.s.s.i.] ] ] ] ] ] ] ] ] ] ] ] ] ] ] ] ] ] ] ] ] ] ] ] ] ] ] ] ] ] ] ] ] ] ] ] ] ] ] ] Q Y Y m % $ 8 8 T.T.T.T.",
"T.T.T.T.q r : , d.s.s.[ ] ] ] ] ] ] ] ] ] ] ] ] ] ] ] ] ] ] ] I / ] ] ] ] ] ] ] ] ] ] ] ] ] ] ] ] ] ] ] ' Y Y U , % .   T.T.T.T.",
"T.T.T.T.q @ % 1.s.s.p.] ] ] ] ] ] ] ] ] ] ] ] ] ] ] ] ] ] ] P % > P ] ] ] ] ] ] ] ] ] ] ] ] ] ] ] ] ] ] ] Y Y Y n % + 8 T.T.T.T.",
"T.T.T.T.q * % 9.s.s.i.] ] ] ] ] ] ] ] ] ] ] ] ] ] ] ] ] ] P % % % : P ] ] ] ] ] ] ] ] ] ] ] ] ] ] ] ] ] ] T Y Y A % $ 8 T.T.T.T.",
"T.T.T.T.q % : t.s.s.e.] ] ] ] ] ] ] ] ] ] ] ] ] ] ] ] ] P : % o.o.> > P ] ] ] ] ] ] ] ] ] ] ] ] ] ] ] ] ] R Y Y L % $   T.T.T.T.",
"T.T.T.T.q & % u.s.s.w.] ] ] ] ] ] ] ] ] ] ] ] ] ] ] ] P % % o.@.@.o.% : P ] ] ] ] ] ] ] ] ] ] ] ] ] ] ] ] R Y Y K % $ . T.T.T.T.",
"T.T.T.T.q & % t.s.s.e.] ] ] ] ] ] ] ] ] ] ] ] ] ] ] P % % ~  . . . .~ % > P ] ] ] ] ] ] ] ] ] ] ] ] ] ] ] R Y Y J % $   T.T.T.T.",
"T.T.T.T.q * % 2.s.s.i.] ] ] ] ] ] ] ] ] ] ] ] ] ] P : % ~  . . . . . .~ % % P ] ] ] ] ] ] ] ] ] ] ] ] ] ] T Y Y Z % o   T.T.T.T.",
"T.T.T.T.q 0 % B s.s.s.] ] ] ] ] ] ] ] ] ] ] ] ] P : % O. . . . . . . . .~ % : P ] ] ] ] ] ] ] ] ] ] ] ] ] Y Y Y v % X   T.T.T.T.",
"T.T.T.T.q q % % r.s.s.w.] ] ] ] ] ] ] ] ] ] ] P > % Z.F. . . . . . . . . .~ % : P ] ] ] ] ] ] ] ] ] ] ] ' Y Y J % % .   T.T.T.T.",
"T.T.T.T.q q = % 6 d.s.s.] ] ] ] ] ] ] ] ] ] P : % Z.Y.I. . . . . . . . . . .^ % : P ] ] ] ] ] ] ] ] ] ] Y Y U < % + 8   T.T.T.T.",
"T.T.T.T.q q q 4 % B d.s.i.] ] ] ] ] ] ] ] F : % Z.Y.Y.Y.+. . . . . . . . . . .^ % : F ] ] ] ] ] ] ] ] T Y U v : 4 8     T.T.T.T.",
"T.T.T.T.q q q N.4 % 6 r.s.i.] ] ] ] ] ` M : : Z.Y.Y.Y.Y.+.+. . . . . . . . . .| l % % M ` ] ] ] ] ] T Y J < % 4 C.8     T.T.T.T.",
"T.T.T.T.q q w M.J.=.% % B 2.0._ ) I M > % 2 G.Y.Y.Y.Y.Y.F. . . . . . . . . . .| } x > : , M I ) ) H C v % % %.K.S.8     T.T.T.T.",
"T.T.T.T.q q q M.Y.U.Z.3 % % % % : > % % 4.J.Y.Y.Y.Y.Y.Y.I. . . . . . . . . . .| } } z ! % % % % : % % % 3 B.P.L.S.8     T.T.T.T.",
"T.T.T.T.q q q M.Y.Y.Y.U.G.6.=.%.%.4.Z.J.Y.Y.Y.Y.Y.Y.Y.Y.Y.+. . . . . . . . . .| } } } } z l ! # # c 4.H.P.L.L.L.S.      T.T.T.T.",
"T.T.T.T.q q q h.Y.Y.Y.Y.Y.Y.Y.U.Y.Y.Y.I.Y.Y.Y.Y.Y.Y.Y.Y.Y.D. . . . . . . . . .| } } } } } } } } } ..L.L.L.L.L.L.S.8     T.T.T.T.",
"j g g g f f f ~ M.M.M.M.M.M.M.M.M.M.M.M.M.M.M.M.M.M.M.M.M.O.X.X.t t t t t t t e e e e e e e e e e r d d d d d d r w w w r r r r ",
"g g g g g g g g g g g g g g g g g g g g g g g g g g g g g g k h q q q q q q q q q q q q q q q q q q q q q q q q q q q q q q q q ",
"g g g g g g g g g g g g g g g g g g g g g g g g g g g g g g g g q q q q q q q q q q q q q q q q q q q q q q q q q q q q q q q q ",
"g g g g g g g g g g g g g g g g g g g g g g g g g g g g g g g g q q q q q q q q q q q q q q q q q q q q q q q q q q q q q q q q "
};
