/* XPM */
static char *result[] = {
/* columns rows colors chars-per-pixel */
"64 64 123 2 ",
"   c #463F3F",
".  c #474040",
"X  c #484141",
"o  c #484242",
"O  c #484243",
"+  c #4A4343",
"@  c #484344",
"#  c #4B4444",
"$  c #4B4545",
"%  c #5B5555",
"&  c #5F5858",
"*  c #5F5959",
"=  c #6B5D55",
"-  c #6B5F56",
";  c #615959",
":  c #615B5B",
">  c #615D5F",
",  c #655F5F",
"<  c #6A6057",
"1  c #69605C",
"2  c #615E61",
"3  c #615F64",
"4  c #5E6164",
"5  c #5F6569",
"6  c #686364",
"7  c #6F6868",
"8  c #706C6D",
"9  c #756E6E",
"0  c #766E6E",
"q  c #6F6F74",
"w  c #757173",
"e  c #737477",
"r  c #7D7778",
"t  c #5AB267",
"y  c #5AB367",
"u  c #5EB568",
"i  c #62B76A",
"p  c #67BC68",
"a  c #66BA6E",
"s  c #6DBE73",
"d  c #73C569",
"f  c #77C869",
"g  c #74C375",
"h  c #71C078",
"j  c #75C27B",
"k  c #FF9100",
"l  c #FD9A0D",
"z  c #FDA816",
"x  c #FABE2C",
"c  c #FABE2D",
"v  c #F7AB36",
"b  c #F1C234",
"n  c #F4C437",
"m  c #FBCB37",
"M  c #F8C53D",
"N  c #97825E",
"B  c #8CD96B",
"V  c #8CD96C",
"C  c #91DA74",
"Z  c #91DA75",
"A  c #98DD7E",
"S  c #E7CC40",
"D  c #F8C64E",
"F  c #E2D94C",
"G  c #FED843",
"H  c #F1CF66",
"J  c #EDDB63",
"K  c #EBC178",
"L  c #F4DC71",
"P  c #FAE071",
"I  c #5A6E83",
"U  c #657982",
"Y  c #5E7FAF",
"T  c #688692",
"R  c #788890",
"E  c #618BB2",
"W  c #7AC480",
"Q  c #75B7CD",
"!  c #6AA9FF",
"~  c #7ED8F6",
"^  c #958B80",
"/  c #949092",
"(  c #929195",
")  c #A4A5AA",
"_  c #A3A9B4",
"`  c #81C889",
"'  c #85C98E",
"]  c #9FDE87",
"[  c #89CA92",
"{  c #8CCC95",
"}  c #90CE9A",
"|  c #A0DD92",
" . c #A2DE95",
".. c #A3DE9B",
"X. c #A6E092",
"o. c #96D1A2",
"O. c #9BD6A1",
"+. c #9DD3AD",
"@. c #AFE3A0",
"#. c #B2E4A5",
"$. c #AEE0B0",
"%. c #BBE7B4",
"&. c #B2E1B8",
"*. c #B4E1BB",
"=. c #B6E2BF",
"-. c #EDD583",
";. c #F5D583",
":. c #F5E6A1",
">. c #F1E2B7",
",. c #F4EAB8",
"<. c #B2DBCB",
"1. c #BAE3C6",
"2. c #BDE3CD",
"3. c #DDDDD4",
"4. c #C7E4EA",
"5. c #CBE4EE",
"6. c #DAEFE1",
"7. c #D0E7F4",
"8. c #D1E7F6",
"9. c #D5E8FE",
"0. c #EFF0ED",
"q. c #EDF5FF",
"w. c None",
/* pixels */
"0 0 0 0 0 0 0 0 0 0 0 0 0 0 0 0 0 0 0 0 0 0 0 0 0 0 0 0 0 0 0 0 % % % % % % % % % % % % % % % % % % % % % % % % % % % % % % % % ",
"0 0 0 0 0 0 0 0 0 0 0 0 0 0 0 0 0 0 0 0 0 0 0 0 0 0 0 0 0 0 0 0 % % % % % % % % % % % % % % % % % % % % % % % % % % % % % % % % ",
"0 0 0 0 0 0 0 0 0 0 0 0 0 0 0 0 0 0 0 0 0 0 0 0 0 0 0 0 0 0 0 0 % % % % % % % % % % % % % % % % % % % % % % % % % % % % % % % % ",
"0 0 0 9 7 7 7 e R R R R R R R R R R R R R R R R R R R R R R 8 7 & * 3 3 3 3 3 3 3 3 3 3 3 3 3 3 3 3 3 3 3 3 3 3 > & & & ; : : : ",
"w.w.w.w.% % % T ~ ~ ~ ~ ~ ~ ~ ~ ~ ~ ~ ~ ~ ~ ~ ~ ~ ~ ~ ~ ~ ~ 5 %   @ ! ! ! ! ! ! ! ! ! ! ! ! ! ! ! ! ! ! ! ! ! ! E       w.w.w.w.",
"w.w.w.w.% % % T ~ ~ ~ ~ ~ ~ ~ ~ ~ ~ ~ ~ ~ ~ ~ ~ ~ ~ ~ ~ ~ ~ 5 %   @ ! ! ! ! ! ! ! ! ! ! ! ! ! ! ! ! ! ! ! ! ! ! E       w.w.w.w.",
"w.w.w.w.% % % T ~ ~ ~ ~ ~ ~ ~ ~ ~ ~ ~ ~ ~ ~ ~ ~ ~ ~ ~ ~ ~ ~ 5 %   @ ! ! ! ! ! ! ! ! ! ! ! ! ! ! ! ! ! ! ! ! ! ! E       w.w.w.w.",
"w.w.w.w.% % % T ~ ~ ~ ~ ~ ~ ~ ~ ~ ~ ~ ~ ~ ~ ~ ~ ~ ~ ~ ~ ~ ~ 5 %   @ ! ! ! ! ! ! ! ! ! ! ! ! ! ! ! ! ! ! ! ! ! ! E       w.w.w.w.",
"w.w.w.w.% % % T ~ ~ ~ ~ ~ ~ ~ ~ ~ ~ ~ ~ ~ ~ ~ ~ ~ ~ ~ ~ ~ ~ 5 %   @ ! ! ! ! ! ! ! ! ! ! ! ! ! ! ! ! ! ! ! ! ! ! E       w.w.w.w.",
"w.w.w.w.% % % T ~ ~ ~ ~ ~ ~ ~ ~ ~ ~ ~ ~ ~ ~ ~ ~ ~ ~ ~ ~ ~ ~ 5 %   @ ! ! ! ! ! ! ! ! ! ! ! ! ! ! ! ! ! ! ! ! ! ! E       w.w.w.w.",
"w.w.w.w.% % % T ~ ~ ~ ~ ~ ~ ~ ~ ~ ~ ~ ~ ~ ~ ~ ~ ~ ~ ~ ~ ~ ~ 5 %   @ ! ! ! ! ! ! ! ! ! ! ! ! ! ! ! ! ! ! ! ! ! ! E       w.w.w.w.",
"w.w.w.w.% % % T ~ ~ ~ ~ ~ ~ ~ ~ ~ ~ ~ ~ ~ ~ ~ ~ ~ ~ ~ ~ ~ ~ 5 %   @ ! ! ! ! ! ! ! ! ! ! ! ! ! ! ! ! ! ! ! ! ! ! E       w.w.w.w.",
"w.w.w.w.% % % T ~ ~ ~ ~ ~ ~ ~ ~ ~ ~ ~ ~ ~ ~ ~ ~ ~ ~ ~ ~ ~ ~ 5 %   @ ! ! ! ! ! ! ! ! ! ! ! ! ! ! ! ! ! ! ! ! ! ! E       w.w.w.w.",
"w.w.w.w.% % % T ~ ~ ~ ~ ~ ~ ~ ~ ~ ~ ~ ~ ~ ~ ~ ~ ~ ~ ~ ~ ~ ~ 5 %   @ ! ! ! ! ! ! ! ! ! ! ! ! ! ! ! ! ! ! ! ! ! ! E       w.w.w.w.",
"w.w.w.w.% % % T ~ ~ ~ ~ ~ ~ ~ ~ ~ ~ ~ ~ ~ ~ ~ ~ ~ ~ ~ ~ ~ ~ 5 %   @ ! ! ! ! ! ! ! ! ! ! ! ! ! ! ! ! ! ! ! ! ! ! E       w.w.w.w.",
"w.w.w.w.% % % T ~ ~ ~ ~ ~ ~ ~ ~ ~ ~ ~ ~ ~ ~ ~ ~ ~ ~ ~ ~ ~ ~ 5 %   @ ! ! ! ! ! ! ! ! ! ! ! ! ! ! ! ! ! ! ! ! ! ! E       w.w.w.w.",
"w.w.w.w.% % % T ~ ~ ~ ~ ~ ~ ~ ~ ~ ~ ~ ~ ~ ~ ~ ~ ~ ~ ~ ~ ~ ~ 5 %   @ ! ! ! ! ! ! ! ! ! ! ! ! ! ! ! ! ! ! ! ! ! ! E       w.w.w.w.",
"w.w.w.w.% % % T ~ ~ ~ ~ ~ ~ ~ ~ ~ ~ ~ ~ ~ ~ ~ ~ ~ ~ ~ ~ ~ ~ 5 %   @ ! ! ! ! ! ! ! ! ! ! ! ! ! ! ! ! ! ! ! ! ! ! E       w.w.w.w.",
"w.w.w.w.% % % T ~ ~ ~ ~ ~ ~ ~ ~ ~ ~ ~ ~ ~ ~ ~ ~ ~ ~ ~ ~ ~ ~ 5 %   @ ! ! ! ! ! ! ! ! ! ! ! ! ! ! ! ! ! ! ! ! ! ! E       w.w.w.w.",
"w.w.w.w.% % % T ~ ~ ~ ~ ~ ~ ~ ~ ~ ~ ~ ~ ~ ~ ~ ~ ~ ~ ~ ~ ~ ~ 5 %   @ ! ! ! ! ! ! ! ! ! ! ! ! ! ! ! ! ! ! ! ! ! ! E       w.w.w.w.",
"w.w.w.w.% % % T ~ ~ ~ ~ ~ ~ ~ ~ ~ ~ ~ ~ ~ ~ ~ ~ ~ ~ ~ ~ ~ ~ 5 %   @ ! ! ! ! ! ! ! ! ! ! ! ! ! ! ! ! ! ! ! ! ! ! E       w.w.w.w.",
"w.w.w.w.% % % T ~ ~ ~ ~ ~ ~ ~ ~ ~ ~ ~ ~ ~ ~ ~ ~ ~ ~ ~ ~ ~ ~ 5 %   @ ! ! ! ! ! ! ! ! ! ! ! ! ! ! ! ! ! ! ! ! ! ! E       w.w.w.w.",
"w.w.w.w.% % % U Q Q Q Q Q Q Q Q Q Q Q Q Q Q Q Q Q Q Q Q Q Q 4 %   O Y Y Y Y Y Y Y Y Y Y Y Y Y Y Y Y Y Y Y Y Y Y I + .   w.w.w.w.",
"w.w.w.w.% % % % % % % % % % % % % % % % % % % % % % % % % % % %   X                                                 +   w.w.w.w.",
"w.w.w.w.% % % % % % % % % % % % % % % % % % % % % % % % % % % % # $                                                 +   w.w.w.w.",
"w.w.w.w.% % % % % % % % % % % % % % % % % % % % % % % % % % % %                                                     +   w.w.w.w.",
"w.w.w.w.% % % w ) ) ) ) ) ) ) ) ) ) ) ) ) ) ) ) ) ) ) ) ) ) ) ) q q q q q q q q q q q q q q q q q q q q q q q q 2 $ o   w.w.w.w.",
"w.w.w.w.% % % ( q.q.q.q.q.q.q.q.q.q.q.q.q.q.q.q.q.q.q.q.q.q.q.q.9.9.9.9.9.9.9.9.9.9.9.9.9.9.9.9.9.9.9.9.9.9.9.9._       w.w.w.w.",
"w.w.w.w.% % % ( q.q.q.q.q.q.q.q.q.q.q.q.q.q.q.q.q.q.q.q.q.q.q.q.9.9.9.9.9.9.9.9.9.9.9.9.9.9.9.9.9.9.9.9.9.9.9.9._       w.w.w.w.",
"w.w.w.w.% % % ( q.q.q.q.q.q.q.q.q.q.q.q.q.q.q.q.q.q.q.q.q.q.q.q.9.9.9.9.9.9.9.9.9.9.9.9.9.9.9.9.9.9.9.9.9.9.9.9._       w.w.w.w.",
"w.w.w.w.% % % ( q.q.q.q.q.q.q.q.q.q.q.q.q.q.q.q.q.q.q.q.q.q.@.X.| | | | ..*.7.9.4.{ h s s s s s j 9.9.9.9.9.9.9._       w.w.w.w.",
"w.w.w.w.% % % ( q.q.q.q.q.q.q.q.q.q.q.q.q.q.q.q.q.q.q.q.q.q.A B B B B B B B Z O.u t t t t t t t i 9.9.9.9.9.9.9._       w.w.w.w.",
"w.w.w.w.% % % ( q.q.q.q.q.q.q.q.q.q.q.q.q.q.q.q.q.q.q.q.q.q.A B B B B B B B B d t t t t t t t t i 9.9.9.9.9.9.9._       w.w.w.w.",
"w.w.w.w.% % % ( q.q.q.q.q.q.q.q.q.q.q.q.q.q.q.q.q.q.q.q.q.q.A B B B B B B B B d t t t t t t t t i 9.9.9.9.9.9.9._       w.w.w.w.",
"w.w.w.w.% % % ( q.q.q.q.q.q.q.q.q.q.q.q.q.q.q.q.q.q.q.q.q.q.A B B B B B B B B d t t t t t t t t i 9.9.9.9.9.9.9._       w.w.w.w.",
"w.w.w.w.% % % ( q.q.q.q.q.q.q.q.q.q.q.q.q.q.q.q.q.q.q.q.q.q.A B B B B B B B B d t t t t t t t t i 9.9.9.9.9.9.9._       w.w.w.w.",
"w.w.w.w.% % % ( q.q.q.q.q.q.q.q.q.q.q.q.q.q.q.q.q.q.q.q.q.q.] B B B B B B B B d t t t t t t t t a 9.9.9.9.9.9.9._       w.w.w.w.",
"w.w.w.w.% % % ( q.q.q.q.q.q.q.q.q.q.q.q.q.q.q.q.q.q.q.q.q.q.#.B B B B B B B B d t t t t t t t t W 9.9.9.9.9.9.9._       w.w.w.w.",
"w.w.w.w.% % % ( q.q.q.q.q.q.q.q.q.q.q.q.q.q.q.q.q.q.q.q.q.q.6.V B B B B B B B d t t t t t t t y <.9.9.9.9.9.9.9._       w.w.w.w.",
"w.w.w.w.% % % ( q.q.q.q.q.q.q.q.q.q.q.q.q.q.q.q.q.q.q.q.q.q.q.%.B B B B B B B d t t t t t t t ' 9.9.9.9.9.9.9.9._       w.w.w.w.",
"w.w.w.w.% % % ( q.q.q.q.q.q.q.q.q.q.q.q.q.q.q.q.q.q.q.q.q.q.q.q.=.C B B B B B d t t t t t u } 9.9.9.9.9.9.9.9.9._       w.w.w.w.",
"w.w.w.w.% % % ( q.q.q.q.q.q.q.q.q.q.q.q.q.q.q.q.q.q.q.q.q.q.q.q.9.8.2.&.$. .B f p g ` [ +.5.9.9.9.9.9.9.9.9.9.9._       w.w.w.w.",
"w.w.w.w.% % % ( q.q.q.q.q.q.q.q.q.q.q.q.q.q.q.q.q.q.q.q.q.q.q.q.9.9.9.9.9.1.B d t o.9.9.9.9.9.9.9.9.9.9.9.9.9.9._       w.w.w.w.",
"w.w.w.w.% % % ( q.q.q.q.q.q.q.q.q.q.q.q.q.q.q.q.q.q.q.q.q.q.q.q.9.9.9.9.9.1.B d t o.9.9.9.9.9.9.9.9.9.9.9.9.9.9._       w.w.w.w.",
"w.w.w.w.% % % ( q.q.q.q.q.q.q.q.q.q.q.q.q.q.q.q.q.q.q.q.q.q.q.q.9.9.9.9.9.1.B d t o.9.9.9.9.9.9.9.9.9.9.9.9.9.9._       w.w.w.w.",
"w.w.w.w.% % % ( q.q.q.q.q.q.q.q.q.q.q.q.q.q.q.q.,.P P P P P P P L L L L L J F S b n M M M M M M M M M M M M -.9._       w.w.w.w.",
"w.w.w.w.% % % ( q.q.q.q.q.q.q.q.q.q.q.q.q.q.q.q.:.G G G G G G G G G G G G G G m x x x x x x x x x x x x x x H 9._       w.w.w.w.",
"w.w.w.w.% % % ( q.q.q.q.q.q.q.q.q.q.q.q.q.q.q.q.:.G G G G G G G G G G G G G G m x x x x x x x x x x x x x x H 9._       w.w.w.w.",
"w.w.w.w.% % % ( q.q.q.q.q.q.q.q.q.q.q.q.q.q.q.q.:.G G G G G G G G G G G G G G m x x x x x x x x x x x x x x H 9._       w.w.w.w.",
"w.w.w.w.% % % ( q.q.q.q.q.q.q.q.q.q.q.q.q.q.q.q.q.q.0.c x x x x x x x x x x x z k k k k k k k k k k k k 3.9.9.9._       w.w.w.w.",
"w.w.w.w.% % % ( q.q.q.q.q.q.q.q.q.q.q.q.q.q.q.q.q.q.q.D x x x x x x x x x x x z k k k k k k k k k k k l 9.9.9.9._       w.w.w.w.",
"w.w.w.w.% % % ( q.q.q.q.q.q.q.q.q.q.q.q.q.q.q.q.q.q.q.;.x x x x x x x x x x x z k k k k k k k k k k k v 9.9.9.9._       w.w.w.w.",
"w.w.w.w.% % % ( q.q.q.q.q.q.q.q.q.q.q.q.q.q.q.q.q.q.q.>.x x x x x x x x x x x z k k k k k k k k k k k K 9.9.9.9._       w.w.w.w.",
"w.w.w.w.% % % ( q.q.q.q.q.q.q.q.q.q.q.q.q.q.q.q.q.q.q.0.c x x x x x x x x x x z k k k k k k k k k k k 3.9.9.9.9._       w.w.w.w.",
"w.w.w.w.% % % ( q.q.q.q.q.q.q.q.q.q.q.q.q.q.q.q.q.q.q.q.D x x x x x x x x x x z k k k k k k k k k k l 9.9.9.9.9._       w.w.w.w.",
"w.w.w.w.% % % ( q.q.q.q.q.q.q.q.q.q.q.q.q.q.q.q.q.q.q.q.;.x x x x x x x x x x z k k k k k k k k k k v 9.9.9.9.9._       w.w.w.w.",
"w.w.w.w.% % % ( q.q.q.q.q.q.q.q.q.q.q.q.q.q.q.q.q.q.q.q.>.x x x x x x x x x x z k k k k k k k k k k K 9.9.9.9.9._       w.w.w.w.",
"w.w.w.w.% % % ( q.q.q.q.q.q.q.q.q.q.q.q.q.q.q.q.q.q.q.q.0.c x x x x x x x x x z k k k k k k k k k k 3.9.9.9.9.9._       w.w.w.w.",
"w.w.w.w.% % % ( q.q.q.q.q.q.q.q.q.q.q.q.q.q.q.q.q.q.q.q.q.D x x x x x x x x x z k k k k k k k k k l 9.9.9.9.9.9._       w.w.w.w.",
"w.w.w.w.% % % ( q.q.q.q.q.q.q.q.q.q.q.q.q.q.q.q.q.q.q.q.q.;.x x x x x x x x x z k k k k k k k k k v 9.9.9.9.9.9._       w.w.w.w.",
"0 0 0 9 7 7 7 r / / / / / / / / / / / / / / / / / / / / / ^ N N < < < < < < < - = = = = = = = = = 1 6 6 6 6 6 6 , & & & ; : : : ",
"0 0 0 0 0 0 0 0 0 0 0 0 0 0 0 0 0 0 0 0 0 0 0 0 0 0 0 0 0 0 0 0 % % % % % % % % % % % % % % % % % % % % % % % % % % % % % % % % ",
"0 0 0 0 0 0 0 0 0 0 0 0 0 0 0 0 0 0 0 0 0 0 0 0 0 0 0 0 0 0 0 0 % % % % % % % % % % % % % % % % % % % % % % % % % % % % % % % % ",
"0 0 0 0 0 0 0 0 0 0 0 0 0 0 0 0 0 0 0 0 0 0 0 0 0 0 0 0 0 0 0 0 % % % % % % % % % % % % % % % % % % % % % % % % % % % % % % % % "
};
