/* XPM */
static char *result[] = {
/* columns rows colors chars-per-pixel */
"64 64 122 2 ",
"   c #4F83D0",
".  c #4E82D1",
"X  c #4F82D1",
"o  c #4E83D1",
"O  c #4F83D1",
"+  c #4F82D2",
"@  c #4E83D2",
"#  c #4F83D2",
"$  c #4F84D1",
"%  c #5083D1",
"&  c #5082D2",
"*  c #5083D2",
"=  c #5084D0",
"-  c #5084D1",
";  c #5085D1",
":  c #5084D2",
">  c #5184D2",
",  c #5085D2",
"<  c #5185D2",
"1  c #5185D3",
"2  c #5286D2",
"3  c #5286D3",
"4  c #5287D3",
"5  c #5387D3",
"6  c #5488D3",
"7  c #5388D4",
"8  c #5488D4",
"9  c #5489D5",
"0  c #558AD4",
"q  c #558AD5",
"w  c #568BD5",
"e  c #568BD6",
"r  c #568CD5",
"t  c #568CD6",
"y  c #598CD4",
"u  c #5A8CD4",
"i  c #5A90D7",
"p  c #5B91D8",
"a  c #5B92D9",
"s  c #5C92D8",
"d  c #5D94D9",
"f  c #5E95D9",
"g  c #5D94DA",
"h  c #5E94DA",
"j  c #5E95DA",
"k  c #6097DA",
"l  c #6097DB",
"z  c #6097DC",
"x  c #6199DB",
"c  c #639BDC",
"v  c #639ADD",
"b  c #639BDD",
"n  c #649BDD",
"m  c #649CDD",
"M  c #659CDD",
"N  c #659DDD",
"B  c #669EDE",
"V  c #669EDF",
"C  c #669FDF",
"Z  c #679FDF",
"A  c #68A0DF",
"S  c #68A1DF",
"D  c #73A1DB",
"F  c #73A2DB",
"G  c #78A6DD",
"H  c #79A6DD",
"J  c #689FE0",
"K  c #68A0E0",
"L  c #68A1E0",
"P  c #69A1E0",
"I  c #69A3E1",
"U  c #6AA2E1",
"Y  c #6AA3E1",
"T  c #6BA4E2",
"R  c #6CA5E2",
"E  c #6DA6E2",
"W  c #6DA6E3",
"Q  c #6EA7E3",
"!  c #6FA9E4",
"~  c #70A9E3",
"^  c #70AAE4",
"/  c #71ABE4",
"(  c #71ABE5",
")  c #72ACE5",
"_  c #72ADE5",
"`  c #74AFE6",
"'  c #74AFE7",
"]  c #75AFE7",
"[  c #76AFE7",
"{  c #75B0E6",
"}  c #75B0E7",
"|  c #75B0E8",
" . c #76B1E8",
".. c #77B2E8",
"X. c #77B3E9",
"o. c #78B3E8",
"O. c #78B3E9",
"+. c #78B4E9",
"@. c #79B4E9",
"#. c #7AB5E9",
"$. c #7AB6EA",
"%. c #7BB6EA",
"&. c #7AB6EB",
"*. c #7BB7EB",
"=. c #7CB8EA",
"-. c #7CB8EB",
";. c #8FB9E3",
":. c #8FBAE4",
">. c #90B9E3",
",. c #92BCE4",
"<. c #93BDE5",
"1. c #AED4ED",
"2. c #B4D9EF",
"3. c #B5D9EF",
"4. c #B5DAEF",
"5. c #C3E5F3",
"6. c #C6E8F3",
"7. c #C6E8F4",
"8. c #C7E9F4",
"9. c #CCEEF6",
"0. c #CDEEF6",
"q. c None",
/* pixels */
"q.q.q.q.q.q.q.q.q.q.q.q.q.q.q.q.q.q.q.q.q.q.q.q.q.q.q.q.q.q.q.q.q.q.q.q.q.q.q.q.q.q.q.q.q.q.q.q.q.q.q.q.q.q.q.q.q.q.q.q.q.q.q.q.",
"q.q.q.q.q.q.q.q.q.q.q.q.q.q.q.q.q.q.q.q.q.q.q.q.q.q.q.q.q.q.q.q.q.q.q.q.q.q.q.q.q.q.q.q.q.q.q.q.q.q.q.q.q.q.q.q.q.q.q.q.q.q.q.q.",
"q.q.q.q.q.q.q.q.q.q.q.q.q.q.q.q.q.q.q.q.q.q.q.q.q.q.q.q.q.q.q.q.q.q.q.q.q.q.q.q.q.q.q.q.q.q.q.q.q.q.q.q.q.q.q.q.q.q.q.q.q.q.q.q.",
"q.q.q.q.q.q.q.q.q.q.q.q.q.q.q.q.q.q.q.q.q.q.q.q.q.q.q.q.q.q.q.q.q.q.q.q.q.q.q.q.q.q.q.q.q.q.q.q.q.q.q.q.q.q.q.q.q.q.q.q.q.q.q.q.",
"q.q.q.q.q.q.q.q.q.q.q.q.q.q.q.q.q.q.q.q.q.q.q.q.q.q.q.q.q.q.q.q.q.q.q.q.q.q.q.q.q.q.q.q.q.q.q.q.q.q.q.q.q.q.q.q.q.q.q.q.q.q.q.q.",
"q.q.q.q.q.q.q.q.q.q.q.q.q.q.q.q.q.q.q.q.q.q.q.q.q.q.q.q.q.q.q.q.q.q.q.q.q.q.q.q.q.q.q.q.q.q.q.q.q.q.q.q.q.q.q.q.q.q.q.q.q.q.q.q.",
"q.q.q.q.q.q.q.q.q.q.q.q.q.q.q.q.q.q.q.q.q.q.q.q.q.q.q.q.q.q.q.q.q.q.q.q.q.q.q.q.q.q.q.q.q.q.q.q.q.q.q.q.q.q.q.q.q.q.q.q.q.q.q.q.",
"q.q.q.q.q.q.q.q.q.q.q.q.q.q.q.q.q.q.q.q.q.q.q.q.q.q.q.q.q.q.q.q.q.q.q.q.q.q.q.q.q.q.q.q.q.q.q.q.q.q.q.q.q.q.q.q.q.q.q.q.q.q.q.q.",
"q.q.q.q.q.q.q.q.q.q.q.q.q.q.q.q.q.q.q.q.q.q.q.q.q.q.q.q.q.q.q.q.q.q.q.q.q.q.q.q.q.q.q.q.q.q.q.q.q.q.q.q.q.q.q.q.q.q.q.q.q.q.q.q.",
"q.q.q.q.q.q.q.q.q.q.q.q.q.q.q.q.q.q.q.q.q.q.q.q.q.q.q.q.q.q.q.q.q.q.q.q.q.q.q.q.q.q.q.q.q.q.q.q.q.q.q.q.q.q.q.q.q.q.q.q.q.q.q.q.",
"q.q.q.q.q.q.q.q.q.q.q.q.q.q.q.q.q.q.q.q.q.q.q.q.q.q.q.q.q.q.q.q.q.q.q.q.q.q.q.q.q.q.q.q.q.q.q.q.q.q.q.q.q.q.q.q.q.q.q.q.q.q.q.q.",
"q.q.q.q.q.q.q.q.q.q.q.q.q.q.q.q.q.q.q.q.q.q.q.q.q.q.q.q.q.q.q.q.q.q.q.q.q.q.q.q.q.q.q.q.q.q.q.q.q.q.q.q.q.q.q.q.q.q.q.q.q.q.q.q.",
"q.q.q.q.q.q.q.q.q.q.q.q.q.q.q.q.q.q.q.q.q.q.q.q.q.q.q.q.q.q.q.q.q.q.q.q.q.q.q.q.q.q.q.q.q.q.q.q.q.q.q.q.q.q.q.q.q.q.q.q.q.q.q.q.",
"q.q.q.q.q.q.q.q.q.q.q.q.q.q.q.q.q.q.q.q.q.q.q.q.q.q.q.q.q.q.q.q.q.q.q.q.q.q.q.q.q.q.q.q.q.q.q.q.q.q.q.q.q.q.q.q.q.q.q.q.q.q.q.q.",
"q.q.q.q.q.q.q.q.q.q.q.q.q.q.q.q.q.q.q.q.q.q.q.q.q.q.q.q.q.q.q.q.q.q.q.q.q.q.q.q.q.q.q.q.q.q.q.q.q.q.q.q.q.q.q.q.q.q.q.q.q.q.q.q.",
"q.q.q.q.q.q.q.q.q.q.q.q.q.q.q.q.q.q.q.q.q.q.q.q.q.q.q.q.q.q.q.q.q.q.q.q.q.q.q.q.q.q.q.q.q.q.q.q.q.q.q.q.q.q.q.q.q.q.q.q.q.q.q.q.",
"q.q.q.q.q.q.q.q.q.q.q.q.q.q.q.q.q.q.q.q.q.q.q.q.q.q.q.q.q.q.q.q.q.q.q.q.q.q.q.q.q.q.q.q.q.q.q.q.q.q.q.q.q.q.q.q.q.q.q.q.q.q.q.q.",
"q.q.q.q.q.q.q.q.q.q.q.q.q.q.q.q.q.q.q.q.q.q.q.q.q.q.q.q.q.q.q.q.q.q.q.q.q.q.q.q.q.q.q.q.q.q.q.q.q.q.q.q.q.q.q.q.q.q.q.q.q.q.q.q.",
"q.q.q.q.q.q.q.q.q.q.q.q.q.q.q.q.q.q.q.q.q.q.q.q.q.q.O O q.q.q.q.q.q.q.q.O O q.q.q.q.q.q.q.q.q.q.q.q.q.q.q.q.q.q.q.q.q.q.q.q.q.q.",
"q.q.q.q.q.q.q.q.q.q.q.q.q.q.q.q.q.q.q.q.q.q.q.q.q.: O O X q.q.q.q.q.q.$ O O O q.q.q.q.q.q.q.q.q.q.q.q.q.q.q.q.q.q.q.q.q.q.q.q.q.",
"q.q.q.q.q.q.q.q.q.q.q.q.q.q.q.q.q.q.q.q.q.q.q.q.q.O : 2 O & q.q.q.q.& O 2 : O q.q.q.q.q.q.q.q.q.q.q.q.q.q.q.q.q.q.q.q.q.q.q.q.q.",
"q.q.q.q.q.q.q.q.q.q.q.q.q.q.q.q.q.q.q.q.q.q.q.q.O O Q ( - O q.q.q.q.O - ( W O O q.q.q.q.q.q.q.q.q.q.q.q.q.q.q.q.q.q.q.q.q.q.q.q.",
"q.q.q.q.q.q.q.q.q.q.q.q.o O q.q.q.q.q.q.q.q.@ O O n -.-.Y O O q.q.O O Y -.-.m O O X q.q.q.q.q.q.q.q.O O q.q.q.q.q.q.q.q.q.q.q.q.",
"q.q.q.q.q.q.q.q.q.q.q.q.O O X q.q.q.q.q.q.O O O O : ] -.-.v O O O O v -.-.[ : O O O * q.q.q.q.q.q.% O O q.q.q.q.q.q.q.q.q.q.q.q.",
"q.q.q.q.q.q.q.q.q.q.q.O O O O O & q.  O O O 7 I : O : ] ^ k O O O O k ^ ' : O : U 7 O O O . q.o O O O O O q.q.q.q.q.q.q.q.q.q.q.",
"q.q.q.q.q.q.q.q.q.q.. O # O 2 O O O O O 3 m @.-.[ : O : O O O O O O O O > O : ] -.#.N 4 O O O O O 2 O # O O q.q.q.q.q.q.q.q.q.q.",
"q.q.q.q.q.q.q.q.. O O x w O g ^ B b V ! &.-.-.-.-.R O O y ;.2.8.8.2.>.y O O T -.-.-.-.*.! Z n B ^ h O q x O O $ q.q.q.q.q.q.q.q.",
"q.q.= O O O O O O < L -.z O 8 -.-.-.-.-.-.-.-.-.| 4 O G 7.0.0.0.0.0.0.6.H O 4 } -.-.-.-.-.-.-.-.-.6 O l -.L < O O O O O O = q.q.",
"q.q.O O O O O 9 b X.-.-.) O O o.-.-.-.-.-.-.-.-.p O G 9.0.0.O O 0.0.0.0.9.H O p -.-.-.-.-.-.-.-.o.O O _ -.-.X.m 9 O O O O O q.q.",
"q.q.q.O O 4 ` -.-.-.-.-.-.4 O d -.-.-.-.-.-.-.( O y 7.0.0.0.O O 0.0.0.0.0.8.u O / -.-.-.-.-.-.-.f O 4 -.-.-.-.-.-.{ 5 O O q.q.q.",
"q.q.q.q.O O t O.-.-.-.-.-.M O - $.-.-.-.-.-.-.l O ;.0.0.0.0.0.0.0.0.0.0.0.0.:.O k -.-.-.-.-.-.%.- O M -.-.-.-.-.O.t O O q.q.q.q.",
"q.q.q.q.q.O O t O.-.-.-.-.=.; O a -.-.-.-.-.-.e O 3.0.0.0.0.0.0.0.O O 0.0.0.4.O r -.-.-.-.-.-.s O : =.-.-.-.-.O.t O O q.q.q.q.q.",
"q.q.q.q.q.q.O O e  .-.-.-.-.K O O ! -.-.~ a 3 O O 6.0.0.0.0.0.0.0.O O 0.0.0.8.O O 3 s ! -.-.! O O J -.-.-.-. .e O O q.q.q.q.q.q.",
"q.q.q.q.q.q.q.O O 5 ^ -.-.-.-.w O : ..Z % O O O O 0.0.0.0.0.0.0.0.0.0.0.0.0.0.O O O O % C ..: O 0 -.-.-.-./ 4 O O q.q.q.q.q.q.q.",
"q.q.q.q.q.q.q.q.o O O j | -.-.O.> O < % < <.5.O O 0.0.0.0.0.0.0.0.0.0.0.0.0.0.O O 5.<.< % 1 O , O.-.-.| j O O O q.q.q.q.q.q.q.q.",
"q.q.q.q.q.q.q.q.q.+ O O # i S ) E O O O ,.0.0.O O 0.0.0.0.1.F y y D 1.0.0.0.0.O O 0.0.<.O O O E ) S i # O O @ q.q.q.q.q.q.q.q.q.",
"q.q.q.q.q.q.q.q.q.q.q.o O O O O O O O O O O O O O O O O O O O O O O O O O O O O O O O O O O O O O O O O $ q.q.q.q.q.q.q.q.q.q.q.",
"q.q.q.q.q.q.q.q.q.q.q.q.q.q.O O O O O O O O O O O O O O O - A +.@.K O O O O O O O O O O O O O O + O q.q.q.q.q.q.q.q.q.q.q.q.q.q.",
"q.q.q.q.q.q.q.q.q.q.q.q.q.q.q.q.q.q.q.q.q.q.q.q.q.q.q.. O A -.-.-.-.P O . q.q.q.q.q.q.q.q.q.q.q.q.q.q.q.q.q.q.q.q.q.q.q.q.q.q.q.",
"q.q.q.q.q.q.q.q.q.q.q.q.q.q.q.q.q.q.q.q.q.q.q.q.q.q.. O O @.-.-.-.-.@.O O . q.q.q.q.q.q.q.q.q.q.q.q.q.q.q.q.q.q.q.q.q.q.q.q.q.q.",
"q.q.q.q.q.q.q.q.q.q.q.q.q.q.q.q.q.q.q.q.q.q.q.q.q.O O O O +.-.-.-.-...O O O O q.q.q.q.q.q.q.q.q.q.q.q.q.q.q.q.q.q.q.q.q.q.q.q.q.",
"q.q.q.q.q.q.q.q.q.q.q.q.q.q.q.q.q.q.q.q.q.q.q.q.+ O s i O K -.-.-.-.Z O i s O   q.q.q.q.q.q.q.q.q.q.q.q.q.q.q.q.q.q.q.q.q.q.q.q.",
"q.q.q.q.q.q.q.q.q.q.q.q.q.q.q.q.q.q.q.q.q.q.q.q.O O o.c O O P @...A - O c O.O O q.q.q.q.q.q.q.q.q.q.q.q.q.q.q.q.q.q.q.q.q.q.q.q.",
"q.q.q.q.q.q.q.q.q.q.q.q.q.q.q.q.q.q.q.q.q.q.q.q.O O w O O O O O O O O O O w O O q.q.q.q.q.q.q.q.q.q.q.q.q.q.q.q.q.q.q.q.q.q.q.q.",
"q.q.q.q.q.q.q.q.q.q.q.q.q.q.q.q.q.q.q.q.q.q.q.q.O O O % q.q.$ O O # q.q.% O O O q.q.q.q.q.q.q.q.q.q.q.q.q.q.q.q.q.q.q.q.q.q.q.q.",
"q.q.q.q.q.q.q.q.q.q.q.q.q.q.q.q.q.q.q.q.q.q.q.q.O O q.q.q.q.q.q.q.q.q.q.q.q.O O q.q.q.q.q.q.q.q.q.q.q.q.q.q.q.q.q.q.q.q.q.q.q.q.",
"q.q.q.q.q.q.q.q.q.q.q.q.q.q.q.q.q.q.q.q.q.q.q.q.q.q.q.q.q.q.q.q.q.q.q.q.q.q.q.q.q.q.q.q.q.q.q.q.q.q.q.q.q.q.q.q.q.q.q.q.q.q.q.q.",
"q.q.q.q.q.q.q.q.q.q.q.q.q.q.q.q.q.q.q.q.q.q.q.q.q.q.q.q.q.q.q.q.q.q.q.q.q.q.q.q.q.q.q.q.q.q.q.q.q.q.q.q.q.q.q.q.q.q.q.q.q.q.q.q.",
"q.q.q.q.q.q.q.q.q.q.q.q.q.q.q.q.q.q.q.q.q.q.q.q.q.q.q.q.q.q.q.q.q.q.q.q.q.q.q.q.q.q.q.q.q.q.q.q.q.q.q.q.q.q.q.q.q.q.q.q.q.q.q.q.",
"q.q.q.q.q.q.q.q.q.q.q.q.q.q.q.q.q.q.q.q.q.q.q.q.q.q.q.q.q.q.q.q.q.q.q.q.q.q.q.q.q.q.q.q.q.q.q.q.q.q.q.q.q.q.q.q.q.q.q.q.q.q.q.q.",
"q.q.q.q.q.q.q.q.q.q.q.q.q.q.q.q.q.q.q.q.q.q.q.q.q.q.q.q.q.q.q.q.q.q.q.q.q.q.q.q.q.q.q.q.q.q.q.q.q.q.q.q.q.q.q.q.q.q.q.q.q.q.q.q.",
"q.q.q.q.q.q.q.q.q.q.q.q.q.q.q.q.q.q.q.q.q.q.q.q.q.q.q.q.q.q.q.q.q.q.q.q.q.q.q.q.q.q.q.q.q.q.q.q.q.q.q.q.q.q.q.q.q.q.q.q.q.q.q.q.",
"q.q.q.q.q.q.q.q.q.q.q.q.q.q.q.q.q.q.q.q.q.q.q.q.q.q.q.q.q.q.q.q.q.q.q.q.q.q.q.q.q.q.q.q.q.q.q.q.q.q.q.q.q.q.q.q.q.q.q.q.q.q.q.q.",
"q.q.q.q.q.q.q.q.q.q.q.q.q.q.q.q.q.q.q.q.q.q.q.q.q.q.q.q.q.q.q.q.q.q.q.q.q.q.q.q.q.q.q.q.q.q.q.q.q.q.q.q.q.q.q.q.q.q.q.q.q.q.q.q.",
"q.q.q.q.q.q.q.q.q.q.q.q.q.q.q.q.q.q.q.q.q.q.q.q.q.q.q.q.q.q.q.q.q.q.q.q.q.q.q.q.q.q.q.q.q.q.q.q.q.q.q.q.q.q.q.q.q.q.q.q.q.q.q.q.",
"q.q.q.q.q.q.q.q.q.q.q.q.q.q.q.q.q.q.q.q.q.q.q.q.q.q.q.q.q.q.q.q.q.q.q.q.q.q.q.q.q.q.q.q.q.q.q.q.q.q.q.q.q.q.q.q.q.q.q.q.q.q.q.q.",
"q.q.q.q.q.q.q.q.q.q.q.q.q.q.q.q.q.q.q.q.q.q.q.q.q.q.q.q.q.q.q.q.q.q.q.q.q.q.q.q.q.q.q.q.q.q.q.q.q.q.q.q.q.q.q.q.q.q.q.q.q.q.q.q.",
"q.q.q.q.q.q.q.q.q.q.q.q.q.q.q.q.q.q.q.q.q.q.q.q.q.q.q.q.q.q.q.q.q.q.q.q.q.q.q.q.q.q.q.q.q.q.q.q.q.q.q.q.q.q.q.q.q.q.q.q.q.q.q.q.",
"q.q.q.q.q.q.q.q.q.q.q.q.q.q.q.q.q.q.q.q.q.q.q.q.q.q.q.q.q.q.q.q.q.q.q.q.q.q.q.q.q.q.q.q.q.q.q.q.q.q.q.q.q.q.q.q.q.q.q.q.q.q.q.q.",
"q.q.q.q.q.q.q.q.q.q.q.q.q.q.q.q.q.q.q.q.q.q.q.q.q.q.q.q.q.q.q.q.q.q.q.q.q.q.q.q.q.q.q.q.q.q.q.q.q.q.q.q.q.q.q.q.q.q.q.q.q.q.q.q.",
"q.q.q.q.q.q.q.q.q.q.q.q.q.q.q.q.q.q.q.q.q.q.q.q.q.q.q.q.q.q.q.q.q.q.q.q.q.q.q.q.q.q.q.q.q.q.q.q.q.q.q.q.q.q.q.q.q.q.q.q.q.q.q.q.",
"q.q.q.q.q.q.q.q.q.q.q.q.q.q.q.q.q.q.q.q.q.q.q.q.q.q.q.q.q.q.q.q.q.q.q.q.q.q.q.q.q.q.q.q.q.q.q.q.q.q.q.q.q.q.q.q.q.q.q.q.q.q.q.q.",
"q.q.q.q.q.q.q.q.q.q.q.q.q.q.q.q.q.q.q.q.q.q.q.q.q.q.q.q.q.q.q.q.q.q.q.q.q.q.q.q.q.q.q.q.q.q.q.q.q.q.q.q.q.q.q.q.q.q.q.q.q.q.q.q.",
"q.q.q.q.q.q.q.q.q.q.q.q.q.q.q.q.q.q.q.q.q.q.q.q.q.q.q.q.q.q.q.q.q.q.q.q.q.q.q.q.q.q.q.q.q.q.q.q.q.q.q.q.q.q.q.q.q.q.q.q.q.q.q.q."
};
