/* XPM */
static char *result[] = {
/* columns rows colors chars-per-pixel */
"68 68 229 2 ",
"   c #497ECF",
".  c #4A7FD0",
"X  c #4B7FD0",
"o  c #4B80D0",
"O  c #4C80D0",
"+  c #4D80D0",
"@  c #4D81D0",
"#  c #4D81D1",
"$  c #4E81D0",
"%  c #4D82D1",
"&  c #4E82D0",
"*  c #4F83D0",
"=  c #4E82D1",
"-  c #4F82D1",
";  c #4E83D1",
":  c #4F83D1",
">  c #4F82D2",
",  c #4E83D2",
"<  c #4F83D2",
"1  c #4F84D0",
"2  c #4F84D1",
"3  c #5083D1",
"4  c #5082D2",
"5  c #5083D2",
"6  c #5084D1",
"7  c #5184D1",
"8  c #5084D2",
"9  c #5085D2",
"0  c #5185D2",
"q  c #5185D3",
"w  c #5285D2",
"e  c #5186D2",
"r  c #5186D3",
"t  c #5286D2",
"y  c #5386D2",
"u  c #5286D3",
"i  c #5287D3",
"p  c #5387D3",
"a  c #5487D3",
"s  c #5287D4",
"d  c #5387D4",
"f  c #5388D3",
"g  c #5588D3",
"h  c #5489D3",
"j  c #5689D3",
"k  c #578AD3",
"l  c #5388D4",
"z  c #5389D4",
"x  c #5489D4",
"c  c #5589D4",
"v  c #558AD4",
"b  c #568BD5",
"n  c #568CD5",
"m  c #578CD6",
"M  c #578DD6",
"N  c #588AD3",
"B  c #588BD4",
"V  c #598CD4",
"C  c #588DD6",
"Z  c #588DD7",
"A  c #588ED6",
"S  c #598FD6",
"D  c #588ED7",
"F  c #598ED7",
"G  c #598FD7",
"H  c #5A8FD7",
"J  c #5C8ED5",
"K  c #5C8FD5",
"L  c #5D8FD5",
"P  c #5990D7",
"I  c #5A90D7",
"U  c #5E90D5",
"Y  c #5F91D6",
"T  c #5A90D8",
"R  c #5B91D8",
"E  c #5B91D9",
"W  c #5B92D9",
"Q  c #5D94D9",
"!  c #5E94D9",
"~  c #5D94DA",
"^  c #5E95DA",
"/  c #5F95DA",
"(  c #5F96DA",
")  c #5F97DB",
"_  c #6091D6",
"`  c #6192D6",
"'  c #6193D7",
"]  c #6293D7",
"[  c #6294D7",
"{  c #6096DA",
"}  c #6097DA",
"|  c #6097DB",
" . c #6098DB",
".. c #6199DB",
"X. c #6198DC",
"o. c #6199DC",
"O. c #6299DC",
"+. c #629ADD",
"@. c #649BDD",
"#. c #649CDD",
"$. c #659DDD",
"%. c #649CDE",
"&. c #659CDE",
"*. c #659DDE",
"=. c #669DDE",
"-. c #669EDE",
";. c #669FDE",
":. c #669EDF",
">. c #679EDF",
",. c #719FDA",
"<. c #67A0DF",
"1. c #68A0DF",
"2. c #7AA8DD",
"3. c #7BA8DE",
"4. c #7DAADE",
"5. c #7EAADF",
"6. c #68A0E0",
"7. c #68A1E0",
"8. c #69A1E0",
"9. c #69A1E1",
"0. c #69A2E0",
"q. c #69A2E1",
"w. c #6AA2E0",
"e. c #6AA3E0",
"r. c #6AA2E1",
"t. c #6AA3E1",
"y. c #6BA3E1",
"u. c #6DA5E2",
"i. c #6CA6E2",
"p. c #6DA6E2",
"a. c #6DA6E3",
"s. c #6DA7E3",
"d. c #6EA7E2",
"f. c #6EA7E3",
"g. c #6EA8E3",
"h. c #6FA9E3",
"j. c #6FA9E4",
"k. c #70AAE4",
"l. c #71AAE4",
"z. c #71ABE5",
"x. c #72ABE5",
"c. c #72ACE5",
"v. c #72ADE5",
"b. c #73ADE5",
"n. c #72ADE6",
"m. c #73ADE6",
"M. c #73AEE6",
"N. c #73AEE7",
"B. c #74AEE5",
"V. c #74AEE6",
"C. c #74AEE7",
"Z. c #75B0E7",
"A. c #76B0E7",
"S. c #76B1E7",
"D. c #76B1E8",
"F. c #77B1E8",
"G. c #77B2E8",
"H. c #77B3E8",
"J. c #78B2E8",
"K. c #78B3E9",
"L. c #78B4E9",
"P. c #79B4E9",
"I. c #79B5E9",
"U. c #7AB5E9",
"Y. c #78B4EA",
"T. c #79B5EA",
"R. c #7AB6EA",
"E. c #7BB6EA",
"W. c #7BB7EA",
"Q. c #7BB7EB",
"!. c #7CB7EB",
"~. c #7BB8EB",
"^. c #7CB8EA",
"/. c #7CB8EB",
"(. c #7CB9EB",
"). c #7DB9EB",
"_. c #7CB8EC",
"`. c #7DB9EC",
"'. c #7DBAEC",
"]. c #7EBAEC",
"[. c #7EBBEC",
"{. c #80ACDF",
"}. c #84B0E1",
"|. c #86B2E1",
" X c #8AB5E2",
".X c #8DB7E2",
"XX c #8DB8E3",
"oX c #90BAE3",
"OX c #92BCE5",
"+X c #A3CBEA",
"@X c #A6CDEB",
"#X c #AFD4ED",
"$X c #B1D6EE",
"%X c #B2D7EE",
"&X c #B4D9EF",
"*X c #B6DBEF",
"=X c #B8DCF0",
"-X c #BEE1F1",
";X c #BEE1F2",
":X c #BFE2F2",
">X c #C0E3F1",
",X c #C2E5F3",
"<X c #C3E5F3",
"1X c #C3E6F2",
"2X c #C5E7F4",
"3X c #C5E8F4",
"4X c #C6E8F4",
"5X c #C6E9F4",
"6X c #C7E9F4",
"7X c #C8EAF4",
"8X c #C8EAF5",
"9X c #C9EAF5",
"0X c #CAEBF5",
"qX c #CAECF5",
"wX c #CBECF5",
"eX c #CCEDF6",
"rX c #CDEEF6",
"tX c #CEEEF6",
"yX c #CEEFF6",
"uX c #CFEFF6",
"iX c #CFF0F7",
"pX c #D0F0F7",
"aX c #D1F1F7",
"sX c #D1F2F7",
"dX c #D2F2F7",
"fX c #D2F2F8",
"gX c #D4F4F8",
"hX c #D5F5F8",
"jX c None",
/* pixels */
"jXjXjXjXjXjXjXjXjXjXjXjXjXjXjXjXjXjXjXjXjXjXjXjXjXjXjXjXjXjXjXjXjXjXjXjXjXjXjXjXjXjXjXjXjXjXjXjXjXjXjXjXjXjXjXjXjXjXjXjXjXjXjXjXjXjXjXjX",
"jXjXjXjXjXjXjXjXjXjXjXjXjXjXjXjXjXjXjXjXjXjXjXjXjXjXjXjXjXjXjXjXjXjXjXjXjXjXjXjXjXjXjXjXjXjXjXjXjXjXjXjXjXjXjXjXjXjXjXjXjXjXjXjXjXjXjXjX",
"jXjXjXjXjXjXjXjXjXjXjXjXjXjXjXjXjXjXjXjXjXjXjXjXjXjXjXjXjXjXjXjXjXjXjXjXjXjXjXjXjXjXjXjXjXjXjXjXjXjXjXjXjXjXjXjXjXjXjXjXjXjXjXjXjXjXjXjX",
"jXjXjXjXjXjXjXjXjXjXjXjXjXjXjXjXjXjXjXjXjXjXjXjXjXjXjXjXjXjXjXjXjXjXjXjXjXjXjXjXjXjXjXjXjXjXjXjXjXjXjXjXjXjXjXjXjXjXjXjXjXjXjXjXjXjXjXjX",
"jXjXjXjXjXjXjXjXjXjXjXjXjXjXjXjXjXjXjXjXjXjXjXjXjXjXjXjXjXjXjXjXjXjXjXjXjXjXjXjXjXjXjXjXjXjXjXjXjXjXjXjXjXjXjXjXjXjXjXjXjXjXjXjXjXjXjXjX",
"jXjXjXjXjXjXjXjXjXjXjXjXjXjXjXjXjXjXjXjXjXjXjXjXjXjXjXjXjXjXjXjXjXjXjXjXjXjXjXjXjXjXjXjXjXjXjXjXjXjXjXjXjXjXjXjXjXjXjXjXjXjXjXjXjXjXjXjX",
"jXjXjXjXjXjXjXjXjXjXjXjXjXjXjXjXjXjXjXjXjXjXjXjXjXjXjXjXjXjXjXjXjXjXjXjXjXjXjXjXjXjXjXjXjXjXjXjXjXjXjXjXjXjXjXjXjXjXjXjXjXjXjXjXjXjXjXjX",
"jXjXjXjXjXjXjXjXjXjXjXjXjXjXjXjXjXjXjXjXjXjXjXjXjXjXjXjXjXjXjXjXjXjXjXjXjXjXjXjXjXjXjXjXjXjXjXjXjXjXjXjXjXjXjXjXjXjXjXjXjXjXjXjXjXjXjXjX",
"jXjXjXjXjXjXjXjXjXjXjXjXjXjXjXjXjXjXjXjXjXjXjXjXjXjXjXjXjXjXjXjXjXjXjXjXjXjXjXjXjXjXjXjXjXjXjXjXjXjXjXjXjXjXjXjXjXjXjXjXjXjXjXjXjXjXjXjX",
"jXjXjXjXjXjXjXjXjXjXjXjXjXjXjXjXjXjXjXjXjXjXjXjXjXjXjXjXjXjXjXjXjXjXjXjXjXjXjXjXjXjXjXjXjXjXjXjXjXjXjXjXjXjXjXjXjXjXjXjXjXjXjXjXjXjXjXjX",
"jXjXjXjXjXjXjXjXjXjXjXjXjXjXjXjXjXjXjXjXjXjXjXjXjXjXjXjXjXjXjXjXjXjXjXjXjXjXjXjXjXjXjXjXjXjXjXjXjXjXjXjXjXjXjXjXjXjXjXjXjXjXjXjXjXjXjXjX",
"jXjXjXjXjXjXjXjXjXjXjXjXjXjXjXjXjXjXjXjXjXjXjXjXjXjXjXjXjXjXjXjXjXjXjXjXjXjXjXjXjXjXjXjXjXjXjXjXjXjXjXjXjXjXjXjXjXjXjXjXjXjXjXjXjXjXjXjX",
"jXjXjXjXjXjXjXjXjXjXjXjXjXjXjXjXjXjXjXjXjXjXjXjXjXjXjXjXjXjXjXjXjXjXjXjXjXjXjXjXjXjXjXjXjXjXjXjXjXjXjXjXjXjXjXjXjXjXjXjXjXjXjXjXjXjXjXjX",
"jXjXjXjXjXjXjXjXjXjXjXjXjXjXjXjXjXjXjXjXjXjXjXjXjXjXjXjXjXjXjXjXjXjXjXjXjXjXjXjXjXjXjXjXjXjXjXjXjXjXjXjXjXjXjXjXjXjXjXjXjXjXjXjXjXjXjXjX",
"jXjXjXjXjXjXjXjXjXjXjXjXjXjXjXjXjXjXjXjXjXjXjXjXjXjXjXjXjXjXjXjXjXjXjXjXjXjXjXjXjXjXjXjXjXjXjXjXjXjXjXjXjXjXjXjXjXjXjXjXjXjXjXjXjXjXjXjX",
"jXjXjXjXjXjXjXjXjXjXjXjXjXjXjXjXjXjXjXjXjXjXjXjXjXjXjXjXjXjXjXjXjXjXjXjXjXjXjXjXjXjXjXjXjXjXjXjXjXjXjXjXjXjXjXjXjXjXjXjXjXjXjXjXjXjXjXjX",
"jXjXjXjXjXjXjXjXjXjXjXjXjXjXjXjXjXjXjXjXjXjXjXjXjXjXjXjXjXjXjXjXjXjXjXjXjXjXjXjXjXjXjXjXjXjXjXjXjXjXjXjXjXjXjXjXjXjXjXjXjXjXjXjXjXjXjXjX",
"jXjXjXjXjXjXjXjXjXjXjXjXjXjXjXjXjXjXjXjXjXjXjXjXjXjXjXjXjXjXjXjXjXjXjXjXjXjXjXjXjXjXjXjXjXjXjXjXjXjXjXjXjXjXjXjXjXjXjXjXjXjXjXjXjXjXjXjX",
"jXjXjXjXjXjXjXjXjXjXjXjXjXjXjXjXjXjXjXjXjXjXjXjXjXjXjXjXjXjXjXjXjXjXjXjXjXjXjXjXjXjXjXjXjXjXjXjXjXjXjXjXjXjXjXjXjXjXjXjXjXjXjXjXjXjXjXjX",
"jXjXjXjXjXjXjXjXjXjXjXjXjXjXjXjXjXjXjXjXjXjXjXjXjXjXjXjXjXjXjXjXjXjXjXjXjXjXjXjXjXjXjXjXjXjXjXjXjXjXjXjXjXjXjXjXjXjXjXjXjXjXjXjXjXjXjXjX",
"jXjXjXjXjXjXjXjXjXjXjXjXjXjXjXjXjXjXjXjXjXjXjXjXjXjX: : jXjXjXjXjXjXjXjXjXjXjX- : : jXjXjXjXjXjXjXjXjXjXjXjXjXjXjXjXjXjXjXjXjXjXjXjXjXjX",
"jXjXjXjXjXjXjXjXjXjXjXjXjXjXjXjXjXjXjXjXjXjXjXjXjXjX: : : 3 jXjX< : : 2 jX- 3 6 : : jXjXjXjXjXjXjXjXjXjXjXjXjXjXjXjXjXjXjXjXjXjXjXjXjXjX",
"jXjXjXjXjXjXjXjXjXjXjXjXjXjXjXjXjXjXjXjXjXjXjXjXjXjX: : c = = = : : 6 6 = : u A $ : jXjXjXjXjXjXjXjXjXjXjXjXjXjXjXjXjXjXjXjXjXjXjXjXjXjX",
"jXjXjXjXjXjXjXjXjXjXjXjXjXjXjXjXjXjXjXjXjXjXjXjXjXjX: b C.( & h y.G.S.*.: t 1.l.= : jXjXjXjXjXjXjXjXjXjXjXjXjXjXjXjXjXjXjXjXjXjXjXjXjXjX",
"jXjXjXjXjXjXjXjXjXjXjXjXjXjXjXjXjXjXjXjXjXjXjXjXjXjX* 0 { A e t././.).T.&.: G H = > jXjXjXjXjXjXjXjXjXjXjXjXjXjXjXjXjXjXjXjXjXjXjXjXjXjX",
"jXjXjXjXjXjXjXjXjXjXjXjXjXjXjXjXjXjXjXjXjXjXjXjXjXjXjX: 8 2 f P.)./././.M.@ : : : jXjXjXjXjXjXjXjXjXjXjXjXjXjXjXjXjXjXjXjXjXjXjXjXjXjXjX",
"jXjXjXjXjXjXjXjXjXjXjXjXjXjXjXjXjXjXjXjXjXjXjXjXjXjXjXjX= : f E.)./././.V.@ : jXjXjXjXjXjXjXjXjXjXjXjXjXjXjXjXjXjXjXjXjXjXjXjXjXjXjXjXjX",
"jXjXjXjXjXjXjXjXjXjXjXjXjXjXjXjXjXjXjXjXjXjXjXjXjXjXjXjXjX= e u./.).(.I.#.& = jXjXjXjXjXjXjXjXjXjXjXjXjXjXjXjXjXjXjXjXjXjXjXjXjXjXjXjXjX",
"jXjXjXjXjXjXjXjXjXjXjXjXjXjXjXjXjX> : : : : : : : : : : : : = f y.P.D.*.6 = : : : : : = = ; : : : - = = ; jXjXjXjXjXjXjXjXjXjXjXjXjXjXjX",
"jXjXjXjXjXjXjXjXjXjXjXjXjXjX- = @ + $ = : @ X   O O o @ . X @ @ ; : : : w g j k J o @ [ ] V @ : : m C v 0 = = jXjXjXjXjXjXjXjXjXjXjXjXjX",
"jXjXjXjXjXjXjXjXjXjXjXjX; & # v  .0.$.6 : g XX-X=X3 k <X2X6X2X@X,.V K 2.%XiXsXfX0X: B gX7X|.7 : e 1.D.g.#.E p & - jXjXjXjXjXjXjXjXjXjXjX",
"jXjXjXjXjXjXjXjXjXjXjX= & D 9.v.K.F.D @ < $ ' +X<X6 y pXrXrXyXrXwXeXrXrXuXyXrXrX0X@ a #X}.: p G @ w j.[.].Y.8.I : ; jXjXjXjXjXjXjXjXjXjX",
"jXjXjXjXjXjXjXjXjX: = 9 #.n.Q.`./.( $ 8 a. .@ N ` O 0 yXrXrXaXeXwXaXrXrXrXrXrXrXqX= o @ % c i.K.D $ x D./.).'.Z.| 0 - jXjXjXjXjXjXjXjXjX",
"jXjXjXjXjXjXjXjXjX= s 6.P.)././.f.8 : <./.K.7.A 8 & 6 7XrXrX9Xj j 0XrXrXrXrXrXrX1X: : F o.b.`.`.n.i : | /././.`.T.%.r - jXjXjXjXjXjXjXjX",
"jXjXjXjXjXjXjXjX= i r.E././.(.^.C = A L./.).R.H.Z.n : *XtXrX0X0 0 8XrXrXrXrXrXyX$X6 F ).].`./././.%.: 6 B./././.).E.*.r : jXjXjXjXjXjXjX",
"jXjXjXjXjXjXjX- i q.Q././././.p.: 6 x.)./././././.( : OXrXrXaX4X6XhX8X6XaXrXrXtX X6 O.Q././././.).Q.v - ! Q./././.'./.:.e : jXjXjXjXjXjX",
"jXjXjXjXjXjX: t 7.`.].)././.(.G : S E././././././.h.: _ ,XiXrXrXrXeXj : 4XrXiX;XL : z./././././././.-.: 9 G./.).~.M.i.*.i : : jXjXjXjXjX",
"jXjXjXjXjX: : 0 } *.g.R.`.).G.e - h./././././././.W.R = {.5XiXrXrXrXB 0 2XiX3X3.: Q R././././././.`.E.p = t./.D.q.R 9 @ = : : : jXjXjXjX",
"jXjXjXjX: : : : & < b ( j.`.7.8 0 U.'.'.'.)./././.`.v.l 6 5.>XyXyXdXqXwXpX:X4.: z N././././.R.K.G.G.R.G : E c.) : @ = : jXjXjXjXjXjXjXjX",
"jXjXjXjXjXjXjXjXjX= ; & n e.T 6 I M.d.y.u.m._.'.).(.`.t.0 6 Y .X%X3X4X&XoXU = = -.!.)./.I.C.r.X.~ ( ;.W 8 p P = & jXjXjXjXjXjXjXjXjXjXjX",
"jXjXjXjXjXjXjXjXjXjXjX: & x q : c M x f f x G 1.U.].J.M @ 5 % 7 7 6 : = : : d $ 5 u.R.V.O.0 @ @ @ @ @ 6 : - = = jXjXjXjXjXjXjXjXjXjXjXjX",
"jXjXjXjXjXjXjXjXjXjXjXjXjX: : : 6 = = = = = : e A t.Z @ 8 s.k...0 : : : ! k.A.F @ : +.x & = : jXjXjX: : : : : jXjXjXjXjXjXjXjXjXjXjXjXjX",
"jXjXjXjXjXjXjXjXjXjXjXjXjX1 : : : jXjXjXjXjXjX< : p = : u./.).>.u : : : / K.].G.C = : = : jXjXjXjXjXjXjX: : jXjXjXjXjXjXjXjXjXjXjXjXjXjX",
"jXjXjXjXjXjXjXjXjXjXjXjXjXjX: : jXjXjXjXjXjXjXjX- : : ^ I.].g.x = jXjX= - @.T.`.=.i : , jXjXjXjXjXjXjXjXjX; jXjXjXjXjXjXjXjXjXjXjXjXjXjX",
"jXjXjXjXjXjXjXjXjXjXjXjXjXjXjXjXjXjXjXjXjXjXjXjXjXjX= 8 r.m.C = & jXjXjX& : w.a.l & jXjXjXjXjXjXjXjXjXjXjXjXjXjXjXjXjXjXjXjXjXjXjXjXjXjX",
"jXjXjXjXjXjXjXjXjXjXjXjXjXjXjXjXjXjXjXjXjXjXjXjXjXjXjX& u x : 4 jXjXjXjXjX= 0 8 = jXjXjXjXjXjXjXjXjXjXjXjXjXjXjXjXjXjXjXjXjXjXjXjXjXjXjX",
"jXjXjXjXjXjXjXjXjXjXjXjXjXjXjXjXjXjXjXjXjXjXjXjXjXjXjX: : : 2 jXjXjXjXjXjX- : : 8 jXjXjXjXjXjXjXjXjXjXjXjXjXjXjXjXjXjXjXjXjXjXjXjXjXjXjX",
"jXjXjXjXjXjXjXjXjXjXjXjXjXjXjXjXjXjXjXjXjXjXjXjXjXjXjXjX: : jXjXjXjXjXjXjXjX: : jXjXjXjXjXjXjXjXjXjXjXjXjXjXjXjXjXjXjXjXjXjXjXjXjXjXjXjX",
"jXjXjXjXjXjXjXjXjXjXjXjXjXjXjXjXjXjXjXjXjXjXjXjXjXjXjXjXjXjXjXjXjXjXjXjXjXjXjXjXjXjXjXjXjXjXjXjXjXjXjXjXjXjXjXjXjXjXjXjXjXjXjXjXjXjXjXjX",
"jXjXjXjXjXjXjXjXjXjXjXjXjXjXjXjXjXjXjXjXjXjXjXjXjXjXjXjXjXjXjXjXjXjXjXjXjXjXjXjXjXjXjXjXjXjXjXjXjXjXjXjXjXjXjXjXjXjXjXjXjXjXjXjXjXjXjXjX",
"jXjXjXjXjXjXjXjXjXjXjXjXjXjXjXjXjXjXjXjXjXjXjXjXjXjXjXjXjXjXjXjXjXjXjXjXjXjXjXjXjXjXjXjXjXjXjXjXjXjXjXjXjXjXjXjXjXjXjXjXjXjXjXjXjXjXjXjX",
"jXjXjXjXjXjXjXjXjXjXjXjXjXjXjXjXjXjXjXjXjXjXjXjXjXjXjXjXjXjXjXjXjXjXjXjXjXjXjXjXjXjXjXjXjXjXjXjXjXjXjXjXjXjXjXjXjXjXjXjXjXjXjXjXjXjXjXjX",
"jXjXjXjXjXjXjXjXjXjXjXjXjXjXjXjXjXjXjXjXjXjXjXjXjXjXjXjXjXjXjXjXjXjXjXjXjXjXjXjXjXjXjXjXjXjXjXjXjXjXjXjXjXjXjXjXjXjXjXjXjXjXjXjXjXjXjXjX",
"jXjXjXjXjXjXjXjXjXjXjXjXjXjXjXjXjXjXjXjXjXjXjXjXjXjXjXjXjXjXjXjXjXjXjXjXjXjXjXjXjXjXjXjXjXjXjXjXjXjXjXjXjXjXjXjXjXjXjXjXjXjXjXjXjXjXjXjX",
"jXjXjXjXjXjXjXjXjXjXjXjXjXjXjXjXjXjXjXjXjXjXjXjXjXjXjXjXjXjXjXjXjXjXjXjXjXjXjXjXjXjXjXjXjXjXjXjXjXjXjXjXjXjXjXjXjXjXjXjXjXjXjXjXjXjXjXjX",
"jXjXjXjXjXjXjXjXjXjXjXjXjXjXjXjXjXjXjXjXjXjXjXjXjXjXjXjXjXjXjXjXjXjXjXjXjXjXjXjXjXjXjXjXjXjXjXjXjXjXjXjXjXjXjXjXjXjXjXjXjXjXjXjXjXjXjXjX",
"jXjXjXjXjXjXjXjXjXjXjXjXjXjXjXjXjXjXjXjXjXjXjXjXjXjXjXjXjXjXjXjXjXjXjXjXjXjXjXjXjXjXjXjXjXjXjXjXjXjXjXjXjXjXjXjXjXjXjXjXjXjXjXjXjXjXjXjX",
"jXjXjXjXjXjXjXjXjXjXjXjXjXjXjXjXjXjXjXjXjXjXjXjXjXjXjXjXjXjXjXjXjXjXjXjXjXjXjXjXjXjXjXjXjXjXjXjXjXjXjXjXjXjXjXjXjXjXjXjXjXjXjXjXjXjXjXjX",
"jXjXjXjXjXjXjXjXjXjXjXjXjXjXjXjXjXjXjXjXjXjXjXjXjXjXjXjXjXjXjXjXjXjXjXjXjXjXjXjXjXjXjXjXjXjXjXjXjXjXjXjXjXjXjXjXjXjXjXjXjXjXjXjXjXjXjXjX",
"jXjXjXjXjXjXjXjXjXjXjXjXjXjXjXjXjXjXjXjXjXjXjXjXjXjXjXjXjXjXjXjXjXjXjXjXjXjXjXjXjXjXjXjXjXjXjXjXjXjXjXjXjXjXjXjXjXjXjXjXjXjXjXjXjXjXjXjX",
"jXjXjXjXjXjXjXjXjXjXjXjXjXjXjXjXjXjXjXjXjXjXjXjXjXjXjXjXjXjXjXjXjXjXjXjXjXjXjXjXjXjXjXjXjXjXjXjXjXjXjXjXjXjXjXjXjXjXjXjXjXjXjXjXjXjXjXjX",
"jXjXjXjXjXjXjXjXjXjXjXjXjXjXjXjXjXjXjXjXjXjXjXjXjXjXjXjXjXjXjXjXjXjXjXjXjXjXjXjXjXjXjXjXjXjXjXjXjXjXjXjXjXjXjXjXjXjXjXjXjXjXjXjXjXjXjXjX",
"jXjXjXjXjXjXjXjXjXjXjXjXjXjXjXjXjXjXjXjXjXjXjXjXjXjXjXjXjXjXjXjXjXjXjXjXjXjXjXjXjXjXjXjXjXjXjXjXjXjXjXjXjXjXjXjXjXjXjXjXjXjXjXjXjXjXjXjX",
"jXjXjXjXjXjXjXjXjXjXjXjXjXjXjXjXjXjXjXjXjXjXjXjXjXjXjXjXjXjXjXjXjXjXjXjXjXjXjXjXjXjXjXjXjXjXjXjXjXjXjXjXjXjXjXjXjXjXjXjXjXjXjXjXjXjXjXjX",
"jXjXjXjXjXjXjXjXjXjXjXjXjXjXjXjXjXjXjXjXjXjXjXjXjXjXjXjXjXjXjXjXjXjXjXjXjXjXjXjXjXjXjXjXjXjXjXjXjXjXjXjXjXjXjXjXjXjXjXjXjXjXjXjXjXjXjXjX",
"jXjXjXjXjXjXjXjXjXjXjXjXjXjXjXjXjXjXjXjXjXjXjXjXjXjXjXjXjXjXjXjXjXjXjXjXjXjXjXjXjXjXjXjXjXjXjXjXjXjXjXjXjXjXjXjXjXjXjXjXjXjXjXjXjXjXjXjX",
"jXjXjXjXjXjXjXjXjXjXjXjXjXjXjXjXjXjXjXjXjXjXjXjXjXjXjXjXjXjXjXjXjXjXjXjXjXjXjXjXjXjXjXjXjXjXjXjXjXjXjXjXjXjXjXjXjXjXjXjXjXjXjXjXjXjXjXjX",
"jXjXjXjXjXjXjXjXjXjXjXjXjXjXjXjXjXjXjXjXjXjXjXjXjXjXjXjXjXjXjXjXjXjXjXjXjXjXjXjXjXjXjXjXjXjXjXjXjXjXjXjXjXjXjXjXjXjXjXjXjXjXjXjXjXjXjXjX"
};
