/* XPM */
static char *result[] = {
/* columns rows colors chars-per-pixel */
"64 64 115 2 ",
"   c black",
".  c #010302",
"X  c #020302",
"o  c #030401",
"O  c #020402",
"+  c #020503",
"@  c #030503",
"#  c #030603",
"$  c #040502",
"%  c #070A03",
"&  c #040805",
"*  c #040905",
"=  c #040906",
"-  c #050B07",
";  c #080A03",
":  c #060C08",
">  c #0C1005",
",  c #08100A",
"<  c #08110B",
"1  c #09110B",
"2  c #0B160E",
"3  c #171F0A",
"4  c #060F12",
"5  c #060F13",
"6  c #061014",
"7  c #0C1A10",
"8  c #0E1D12",
"9  c #0F1F12",
"0  c #0F1E13",
"q  c #0F1F13",
"w  c #271D0C",
"e  c #18210B",
"r  c #1B250C",
"t  c #1C260C",
"y  c #1C270D",
"u  c #1D270D",
"i  c #1F2A0E",
"p  c #122518",
"a  c #122618",
"s  c #142B19",
"d  c #152B1B",
"f  c #162D1C",
"g  c #162D1D",
"h  c #17301E",
"j  c #2B200D",
"k  c #2C210D",
"l  c #202B0E",
"z  c #202C0E",
"x  c #212D0F",
"c  c #232F0F",
"v  c #32250F",
"b  c #33260F",
"n  c #2C2516",
"m  c #243010",
"M  c #122E3A",
"N  c #122F3A",
"B  c #122F3B",
"V  c #12303B",
"C  c #324416",
"Z  c #334516",
"A  c #354817",
"S  c #354918",
"D  c #21442B",
"F  c #21452C",
"G  c #275033",
"H  c #295536",
"J  c #2D6038",
"K  c #2D6139",
"L  c #40571C",
"P  c #42591D",
"I  c #435B1E",
"U  c #445C1E",
"Y  c #445D1E",
"T  c #455E1F",
"R  c #597827",
"E  c #597928",
"W  c #143441",
"Q  c #346A43",
"!  c #367047",
"~  c #377147",
"^  c #377148",
"/  c #377248",
"(  c #387349",
")  c #39754A",
"_  c #39764B",
"`  c #3A774B",
"'  c #60822A",
"]  c #60832B",
"[  c #63872C",
"{  c #64882C",
"}  c #77A235",
"|  c #78A335",
" . c #7BA736",
".. c #7CA837",
"X. c #3E8051",
"o. c #4CA35F",
"O. c #4EA561",
"+. c #55B56A",
"@. c #82B03A",
"#. c #85B43B",
"$. c #85B53B",
"%. c #86B63B",
"&. c #86B63C",
"*. c #87B83C",
"=. c #88B93C",
"-. c #8ABB3D",
";. c #8ABC3D",
":. c #8DC03F",
">. c #8EC13F",
",. c #E2A944",
"<. c #E4AB45",
"1. c #E4AC45",
"2. c #F9BB4B",
"3. c #E9C477",
"4. c None",
/* pixels */
"4.4.4.4.4.4.4.4.4.4.4.4.4.4.4.4.4.4.4.4.4.4.4.4.4.4.4.4.4.4.4.4.4.4.4.4.4.4.4.4.4.4.4.4.4.4.4.4.4.4.4.4.4.4.4.4.4.4.4.4.4.4.4.4.",
"4.4.4.4.4.4.4.4.4.4.4.4.4.4.4.4.4.4.4.4.4.4.4.4.4.4.4.4.4.4.4.4.4.4.4.4.4.4.4.4.4.4.4.4.4.4.4.4.4.4.4.4.4.4.4.4.4.4.4.4.4.4.4.4.",
"4.4.4.4.4.4.4.4.4.4.4.4.    4.4.4.4.4.4.4.4.4.4.4.4.4.4.4.4.4.    4.4.4.4.4.4.4.4.4.4.4.4.4.4.4.4.4.    4.4.4.4.4.4.4.4.4.4.4.4.",
"4.4.4.4.4.4.4.4.4.4.4.4.      4.4.4.4.4.4.4.4.4.4.4.4.4.4.4.        4.4.4.4.4.4.4.4.4.4.4.4.4.4.4.      4.4.4.4.4.4.4.4.4.4.4.4.",
"4.4.4.4.4.4.4.4.4.4.4.4.        4.4.4.4.4.4.4.4.4.4.4.4.4.            4.4.4.4.4.4.4.4.4.4.4.4.4.        4.4.4.4.4.4.4.4.4.4.4.4.",
"4.4.4.4.4.4.4.4.4.4.4.4.    2     4.4.4.4.4.4.4.4.4.4.4.    j     n     4.4.4.4.4.4.4.4.4.4.4.    2     4.4.4.4.4.4.4.4.4.4.4.4.",
"4.4.4.4.4.4.4.4.4.4.4.4.    ) 2     4.4.4.4.4.4.4.4.4.    j <.    3.n     4.4.4.4.4.4.4.4.4.    2 )     4.4.4.4.4.4.4.4.4.4.4.4.",
"4.4.4.4.4.4.4.4.4.4.4.4.    X.)     4.4.4.4.                                        4.4.4.4.    ) X.    4.4.4.4.4.4.4.4.4.4.4.4.",
"4.4.4.4.4.4.4.4.4.4.4.4.    X.X.    4.4.4.                                            4.4.4.    X.X.    4.4.4.4.4.4.4.4.4.4.4.4.",
"4.4.4.4.4.4.4.4.4.4.4.4.    X.X.    4.4.    6 V B 6   d X.X.X.X.X.X.X.X.d   5 M B 6     4.4.    X.X.    4.4.4.4.4.4.4.4.4.4.4.4.",
"4.4.4.4.4.4.4.4.4.4.4.4.    X.X.    4.4.    B W W N   = X.X.X.X.X.X.X.X.*   M W W M     4.4.    X.X.    4.4.4.4.4.4.4.4.4.4.4.4.",
"4.4.4.4.4.4.4.4.4.4.4.4.    X.X.    4.4.    B W W M   : X.X.X.X.X.X.X.X.:   B W W M     4.4.    X.X.    4.4.4.4.4.4.4.4.4.4.4.4.",
"4.4.4.4.4.4.4.4.4.4.4.4.    X.X.    4.4.    6 B M 4   g X.X.X.X.X.X.X.X.f   6 B B 5     4.4.    X.X.    4.4.4.4.4.4.4.4.4.4.4.4.",
"4.4.4.4.4.4.4.4.4.4.4.4.    X.X.    4.4.4.          - ~ X.X.X.X.X.X.X.X.! -           4.4.4.    X.X.    4.4.4.4.4.4.4.4.4.4.4.4.",
"4.4.4.4.4.4.4.4.4.4.4.4.    X.X.    4.4.4.4.    & h / X.X.X.X.X.X.X.X.X.X./ h &     4.4.4.4.    X.X.    4.4.4.4.4.4.4.4.4.4.4.4.",
"4.4.4.4.4.4.4.4.4.4.4.4.    X.X.    4.4.4.4.4.  , _ X.X.X.X.X.X.X.X.X.X.X.X._ ,   4.4.4.4.4.    X.X.    4.4.4.4.4.4.4.4.4.4.4.4.",
"4.4.4.4.4.4.4.4.4.4.4.4.    X.X.    4.4.4.4.4.    1 H ` X.X.X.X.X.X.X.X.` H <     4.4.4.4.4.    X.X.    4.4.4.4.4.4.4.4.4.4.4.4.",
"4.4.4.4.4.4.4.4.4.4.4.4.    X.X.    4.4.4.4.4.4.                                4.4.4.4.4.4.    X.X.    4.4.4.4.4.4.4.4.4.4.4.4.",
"4.4.4.4.4.4.4.4.4.4.4.4.    X.X.    4.4.4.4.4.4.4.                            4.4.4.4.4.4.4.    X.X.    4.4.4.4.4.4.4.4.4.4.4.4.",
"4.4.4.4.    4.4.4.4.4.4.    X.X.    4.4.4.4.4.4.4.    +.+.+.+.+.+.+.+.+.+.    4.4.4.4.4.4.4.    X.X.    4.4.4.4.4.4.    4.4.4.4.",
"4.4.4.4.      4.4.4.4.4.    X.X.    4.4.4.4.4.4.4.    +.+.+.+.+.+.+.+.+.+.    4.4.4.4.4.4.4.    X.X.    4.4.4.4.4.      4.4.4.4.",
"4.4.4.4.        4.4.4.4.    X.X.    4.4.4.4.4.4.                                4.4.4.4.4.4.    X.X.    4.4.4.4.        4.4.4.4.",
"4.4.4.4.    9     4.4.4.    X.X.    4.4.4.4.                                        4.4.4.4.    X.X.    4.4.4.    9     4.4.4.4.",
"4.4.4.4.    O.9     4.4.    X.X.              > ' &.>.>.>.>.>.    >.>.>.>.>.&.' >               X.X.    4.4.    9 O.    4.4.4.4.",
"4.4.4.4.    +.O.    4.4.    ( X.0             ] >.>.>.>.>.>.>.    >.>.>.>.>.>.>.'             q X.(     4.4.    O.+.    4.4.4.4.",
"4.4.4.4.    +.+.    4.4.    F X.X.X.X.X.X.#   &.>.@.y u @.>.>.    >.>.@.y u @.>.%.  + X.X.X.X.X.X.D     4.4.    +.+.    4.4.4.4.",
"4.4.4.4.    +.+.    4.4.4.  X F ( X.X.X.X.    >.@.e     e @.>.    >.@.e     e @.>.    X.X.X.X.( D .   4.4.4.    +.+.    4.4.4.4.",
"4.4.4.4.    +.+.    4.4.4.                    @.e   j j   e @.    @.e   j j   e @.                    4.4.4.    +.+.    4.4.4.4.",
"4.4.4.4.    +.+.    4.4.4.4.4.                e   j <.<.j   e     e   j <.<.j   e                 4.4.4.4.4.    +.+.    4.4.4.4.",
"4.4.4.4.    +.+.    4.4.4.4.4.4.4.4.4.4.4.      w ,.2.2.1.k         w ,.2.2.1.k       4.4.4.4.4.4.4.4.4.4.4.    +.+.    4.4.4.4.",
"4.4.4.4.    +.+.    4.4.4.4.4.4.4.4.4.4.4.    j <.<.v b <.<.j     j <.<.v b <.<.j     4.4.4.4.4.4.4.4.4.4.4.    +.+.    4.4.4.4.",
"4.4.4.4.    +.+.                              <.<.j     j <.<.    <.<.j     j <.<.                              +.+.    4.4.4.4.",
"4.4.4.4.    o.+.s                             <.j   e e   j <.    <.j   e e   j <.                            s +.o.    4.4.4.4.",
"4.4.4.4.    K +.+.+.+.+.+.+.+.+.+.+.+.+.+.    j   e @.@.e   j     j   e @.@.e   j     +.+.+.+.+.+.+.+.+.+.+.+.+.+.J     4.4.4.4.",
"4.4.4.4.4.  O K o.+.+.+.+.+.+.+.+.+.+.+.+.      e @.>.>.@.e         e @.>.>.@.e       +.+.+.+.+.+.+.+.+.+.+.+.o.K O   4.4.4.4.4.",
"4.4.4.4.4.                                    e @.>.>.>.>.@.e     e @.>.>.>.>.@.e                                     4.4.4.4.4.",
"4.4.4.4.4.4.4.                                @.>.z x >.>.>.@.    @.>.>.>.c c >.@.                                4.4.4.4.4.4.4.",
"4.4.4.4.4.4.4.4.4.4.4.4.4.    a / X.X.X.X.    >.>.    >.>.>.>.    >.>.>.>.    >.>.    X.X.X.X.^ p     4.4.4.4.4.4.4.4.4.4.4.4.4.",
"4.4.4.4.4.4.4.4.4.4.4.4.4.    / X.X.X.X.X.    >.>.    >.>.>.>.    >.>.>.>.    >.>.    X.X.X.X.X.^     4.4.4.4.4.4.4.4.4.4.4.4.4.",
"4.4.4.4.4.4.4.4.4.4.4.4.4.    X.X.8           >.>.    >.>.>.>.    >.>.>.>.    >.>.          0 X.X.    4.4.4.4.4.4.4.4.4.4.4.4.4.",
"4.4.4.4.4.4.4.4.4.4.4.4.4.    X.X.            >.>.    >.>.>.>.    >.>.>.>.    >.>.            X.X.    4.4.4.4.4.4.4.4.4.4.4.4.4.",
"4.4.4.4.4.4.4.4.4.4.4.4.4.    X.X.    4.4.    >.>.    >.>.>.>.    >.>.>.>.    >.>.    4.4.    X.X.    4.4.4.4.4.4.4.4.4.4.4.4.4.",
"4.4.4.4.4.4.4.4.4.4.4.4.4.    X.X.    4.4.    >.>.    >.>.>.>.    >.>.>.>.    >.>.    4.4.    X.X.    4.4.4.4.4.4.4.4.4.4.4.4.4.",
"4.4.4.4.4.4.4.4.4.4.4.4.4.    X.X.    4.4.    >.>.    >.>.>.>.    >.>.>.>.    >.>.    4.4.    X.X.    4.4.4.4.4.4.4.4.4.4.4.4.4.",
"4.4.4.4.4.4.4.4.4.4.4.4.4.    X.X.    4.4.    >.>.    >.>.>.>.    >.>.>.>.    >.>.    4.4.    X.X.    4.4.4.4.4.4.4.4.4.4.4.4.4.",
"4.4.4.4.4.4.4.4.4.4.4.4.4.    X.X.    4.4.    >.>.    >.>.>.>.    >.>.>.>.    >.>.    4.4.    X.X.    4.4.4.4.4.4.4.4.4.4.4.4.4.",
"4.4.4.4.4.4.4.4.4.4.4.4.4.    X.X.    4.4.    =.>.m m >.>.>.>.    >.>.>.>.m m >.*.    4.4.    X.X.    4.4.4.4.4.4.4.4.4.4.4.4.4.",
"4.4.4.4.4.4.4.4.4.4.4.4.4.    X.X.    4.4.    ..>.>.>.>.>.>.>.    >.>.>.>.>.>.>. .    4.4.    X.X.    4.4.4.4.4.4.4.4.4.4.4.4.4.",
"4.4.4.4.4.4.4.4.4.4.4.4.4.    X.X.    4.4.    { >.>.>.>.>.>.>.    >.>.>.>.>.>.>.[     4.4.    X.X.    4.4.4.4.4.4.4.4.4.4.4.4.4.",
"4.4.4.4.4.4.4.4.4.4.4.4.4.    X.X.    4.4.    U >.>.>.>.>.>.>.    >.>.>.>.>.>.>.I     4.4.    X.X.    4.4.4.4.4.4.4.4.4.4.4.4.4.",
"4.4.4.4.4.4.4.4.4.4.4.4.4.    X.X.    4.4.4.  t >.>.>.>.>.>.>.    >.>.>.>.>.>.>.r   4.4.4.    X.X.    4.4.4.4.4.4.4.4.4.4.4.4.4.",
"4.4.4.4.4.4.4.4.4.4.4.4.4.    X.X.    4.4.4.    | >.>.>.>.>.>.    >.>.>.>.>.>.}     4.4.4.    X.X.    4.4.4.4.4.4.4.4.4.4.4.4.4.",
"4.4.4.4.4.4.4.4.4.4.4.4.    7 X.X.    4.4.4.    P >.>.>.>.>.>.    >.>.>.>.>.>.L     4.4.4.    X.X.7     4.4.4.4.4.4.4.4.4.4.4.4.",
"4.4.4.4.4.4.4.4.4.4.4.4.  @ Q X.X.    4.4.4.4.  ; $.>.>.>.>.>.    >.>.>.>.>.#.%   4.4.4.4.    X.X.Q @   4.4.4.4.4.4.4.4.4.4.4.4.",
"4.4.4.4.4.4.4.4.4.4.4.    G X.X.X.    4.4.4.4.    T >.>.>.>.>.    >.>.>.>.>.Y     4.4.4.4.    X.X.X.G     4.4.4.4.4.4.4.4.4.4.4.",
"4.4.4.4.4.4.4.4.4.4.                  4.4.4.4.4.  $ | >.>.>.>.    >.>.>.>.} o   4.4.4.4.4.                  4.4.4.4.4.4.4.4.4.4.",
"4.4.4.4.4.4.4.4.4.4.                  4.4.4.4.4.    l ;.>.>.>.    >.>.>.;.i     4.4.4.4.4.                  4.4.4.4.4.4.4.4.4.4.",
"4.4.4.4.4.4.4.4.4.4.4.4.4.4.4.4.4.4.4.4.4.4.4.4.4.    S :.>.>.    >.>.:.A     4.4.4.4.4.4.4.4.4.4.4.4.4.4.4.4.4.4.4.4.4.4.4.4.4.",
"4.4.4.4.4.4.4.4.4.4.4.4.4.4.4.4.4.4.4.4.4.4.4.4.4.4.    Z -.>.    >.-.C     4.4.4.4.4.4.4.4.4.4.4.4.4.4.4.4.4.4.4.4.4.4.4.4.4.4.",
"4.4.4.4.4.4.4.4.4.4.4.4.4.4.4.4.4.4.4.4.4.4.4.4.4.4.4.    3 E     R 3     4.4.4.4.4.4.4.4.4.4.4.4.4.4.4.4.4.4.4.4.4.4.4.4.4.4.4.",
"4.4.4.4.4.4.4.4.4.4.4.4.4.4.4.4.4.4.4.4.4.4.4.4.4.4.4.4.                4.4.4.4.4.4.4.4.4.4.4.4.4.4.4.4.4.4.4.4.4.4.4.4.4.4.4.4.",
"4.4.4.4.4.4.4.4.4.4.4.4.4.4.4.4.4.4.4.4.4.4.4.4.4.4.4.4.4.4.        4.4.4.4.4.4.4.4.4.4.4.4.4.4.4.4.4.4.4.4.4.4.4.4.4.4.4.4.4.4.",
"4.4.4.4.4.4.4.4.4.4.4.4.4.4.4.4.4.4.4.4.4.4.4.4.4.4.4.4.4.4.4.4.4.4.4.4.4.4.4.4.4.4.4.4.4.4.4.4.4.4.4.4.4.4.4.4.4.4.4.4.4.4.4.4.",
"4.4.4.4.4.4.4.4.4.4.4.4.4.4.4.4.4.4.4.4.4.4.4.4.4.4.4.4.4.4.4.4.4.4.4.4.4.4.4.4.4.4.4.4.4.4.4.4.4.4.4.4.4.4.4.4.4.4.4.4.4.4.4.4."
};
