/* XPM */
static char *result[] = {
/* columns rows colors chars-per-pixel */
"64 64 252 2 ",
"   c #51565F",
".  c #53565F",
"X  c #52575F",
"o  c #545760",
"O  c #565760",
"+  c #575760",
"@  c #5C5760",
"#  c #5D5761",
"$  c #555860",
"%  c #545861",
"&  c #555861",
"*  c #585860",
"=  c #585861",
"-  c #5B5860",
";  c #585962",
":  c #595962",
">  c #5A5962",
",  c #585A63",
"<  c #595A63",
"1  c #5C5960",
"2  c #5C5A62",
"3  c #5E5B63",
"4  c #5B5B64",
"5  c #5C5B64",
"6  c #5B5C65",
"7  c #5C5D65",
"8  c #5C5E66",
"9  c #5E5E67",
"0  c #5F5E67",
"q  c #595F68",
"w  c #605861",
"e  c #615961",
"r  c #625961",
"t  c #625A61",
"y  c #615A62",
"u  c #635B64",
"i  c #635C64",
"p  c #675D65",
"a  c #695A61",
"s  c #6E5B63",
"d  c #6D5C63",
"f  c #695C64",
"g  c #6B5E66",
"h  c #6E5F66",
"j  c #605F68",
"k  c #715B62",
"l  c #705D65",
"z  c #715F66",
"x  c #775C64",
"c  c #775D64",
"v  c #745F66",
"b  c #785D64",
"n  c #785F66",
"m  c #7C5D64",
"M  c #7D5E64",
"N  c #62616A",
"B  c #62626A",
"V  c #66626A",
"C  c #64646D",
"Z  c #66646C",
"A  c #67656D",
"S  c #67656E",
"D  c #66666E",
"F  c #68666E",
"G  c #69666E",
"H  c #69666F",
"J  c #726067",
"K  c #7B6067",
"L  c #786168",
"P  c #7F6168",
"I  c #696870",
"U  c #696871",
"Y  c #6B6971",
"T  c #6C6972",
"R  c #6C6A72",
"E  c #6C6B74",
"W  c #696D75",
"Q  c #6E6C74",
"!  c #6F6D76",
"~  c #6F6E76",
"^  c #706F78",
"/  c #6B717A",
"(  c #73727B",
")  c #72737C",
"_  c #74737C",
"`  c #75747C",
"'  c #74767F",
"]  c #815E65",
"[  c #885F66",
"{  c #846066",
"}  c #886066",
"|  c #896066",
" . c #8A6066",
".. c #8D6066",
"X. c #8E6167",
"o. c #8E6267",
"O. c #896369",
"+. c #8E6268",
"@. c #8F6369",
"#. c #906167",
"$. c #926167",
"%. c #936167",
"&. c #976267",
"*. c #996268",
"=. c #9B6368",
"-. c #9C6368",
";. c #9D6368",
":. c #9F6368",
">. c #9E6469",
",. c #877279",
"<. c #A16469",
"1. c #A46469",
"2. c #A66569",
"3. c #A86569",
"4. c #A8656A",
"5. c #AB656A",
"6. c #AB666A",
"7. c #AC6669",
"8. c #AC666A",
"9. c #AD666A",
"0. c #AE666A",
"q. c #AF666A",
"w. c #B0666A",
"e. c #B3676B",
"r. c #B5676B",
"t. c #B6676B",
"y. c #B7686B",
"u. c #B9686B",
"i. c #BC686C",
"p. c #C0696C",
"a. c #C1696D",
"s. c #C46A6D",
"d. c #C66A6D",
"f. c #C76A6D",
"g. c #C86B6D",
"h. c #C96B6D",
"j. c #CA6B6E",
"k. c #CE6C6E",
"l. c #CF6C6E",
"z. c #D06C6E",
"x. c #D16C6E",
"c. c #D56D6F",
"v. c #D66D6F",
"b. c #DA6E70",
"n. c #DB6E70",
"m. c #DD6E70",
"M. c #DE6E70",
"N. c #DF6E70",
"B. c #E06F70",
"V. c #E26F70",
"C. c #E46F71",
"Z. c #E57071",
"A. c #E77071",
"S. c #E97071",
"D. c #EB7072",
"F. c #ED7172",
"G. c #EE7172",
"H. c #EF7172",
"J. c #EB7274",
"K. c #F07172",
"L. c #F17272",
"P. c #F27272",
"I. c #F37273",
"U. c #F47273",
"Y. c #F77373",
"T. c #F87373",
"R. c #FA7373",
"E. c #FB7374",
"W. c #FC7374",
"Q. c #FC7474",
"!. c #FE7474",
"~. c #FF7474",
"^. c #757780",
"/. c #767981",
"(. c #757B84",
"). c #767D85",
"_. c #797880",
"`. c #797D85",
"'. c #7B7C85",
"]. c #7B7D86",
"[. c #7C7C84",
"{. c #8A7B83",
"}. c #897F87",
"|. c #837F88",
" X c #798088",
".X c #7D818A",
"XX c #7D828B",
"oX c #7F838B",
"OX c #7D838C",
"+X c #7F848D",
"@X c #81858E",
"#X c #80868F",
"$X c #9A868D",
"%X c #9B868D",
"&X c #808790",
"*X c #828892",
"=X c #838992",
"-X c #848891",
";X c #848A93",
":X c #868A93",
">X c #878A93",
",X c #858B94",
"<X c #878B94",
"1X c #858C95",
"2X c #898B94",
"3X c #888F98",
"4X c #9F8990",
"5X c #8B919A",
"6X c #8E929B",
"7X c #8C939C",
"8X c #8E949D",
"9X c #8F949D",
"0X c #8F969F",
"qX c #90969F",
"wX c #A48C93",
"eX c #9097A0",
"rX c #9197A0",
"tX c #9298A1",
"yX c #9299A2",
"uX c #9399A2",
"iX c #939AA3",
"pX c #959BA4",
"aX c #979EA7",
"sX c #989FA8",
"dX c #BC9CA2",
"fX c #9AA0A9",
"gX c #9AA1AA",
"hX c #9BA1AA",
"jX c #9DA4AD",
"kX c #9EA5AE",
"lX c #9FA6AF",
"zX c #A0A6AF",
"xX c #ACA2AA",
"cX c #B2A6AE",
"vX c #A1A8B1",
"bX c #A2A8B1",
"nX c #A3AAB3",
"mX c #A4ABB4",
"MX c #A5ACB5",
"NX c #A6ADB6",
"BX c #A7ADB6",
"VX c #A7AEB7",
"CX c #A8AFB8",
"ZX c #ADAFB8",
"AX c #B5A9B1",
"SX c #B1ACB5",
"DX c #A9B0B9",
"FX c #AAB1BA",
"GX c #D59296",
"HX c #E3898A",
"JX c #C2A0A6",
"KX c None",
/* pixels */
"KXKXKXKXKXKXKXKXKXKXKXKXKXKXKXKXKXKXKXKXKXKXKXKXKXKXKXKXKXKXKXKXKXKXKXKXKXKXKXt KXKXKXKX@                         u.KXKXKXKXKXKX",
"KXKXKXKXKXKXKXKXKXKXKXKXKXHX~.~.~.~.~.~.~.~.~.~.~.~.~.~.~.~.~.~.~.~.~.~.~.~.~.= KXKXKXW  .H.H.H.H.H.H.H.H.H.H.H.H.~.~.KXKXKXKXKX",
"KXKXFXFXFXFXFXFXFXFXFXFXFX,.R.~.~.~.~.~.~.~.~.~.~.~.~.~.~.~.~.~.~.A.s 9.~.~.~.: lXFXFX' 9.~.~.~.~.~.~.~.~.~.~.~.~.~.~.AXFXFXKXKX",
"KXKXFXFXFXFXFXFXFXFXFXFXFX% H.~.~.~.~.~.~.~.~.~.~.~.~.~.~.~.~.~.~.!.v.H.~.~.~.: lXFXFX' 9.~.~.~.~.~.~.~.~.~.~.~.~.~.~.AXFXFXKXKX",
"KXKXZXAXAXAXAXAXxX6XFXFXFX% H.~.~.~.~.~.~.~.~.~.~.~.~.~.~.~.~.~.~.~.~.~.~.~.~.: lXFXFX' 9.~.~.~.~.~.~.~.~.~.~.~.~.~.~.AXFXFXKXKX",
"KXKXJX~.~.~.~.~.g.T FXFXFX% H.~.~.~.~.~.~.~.~.~.~.~.~.~.~.~.~.~.~.~.~.~.~.~.~.: lXFXFX' 9.~.~.~.~.~.~.~.~.~.~.~.~.~.~.AXFXFXKXKX",
"KXKXwX8.T.~.~.~.g.T FXFXFX% H.~.~.~.~.~.~.R.9.3.f.~.~.~.~.~.~.~.~.~.~.~.~.~.~.: lXFXFX' 9.~.~.~.~.~.~.~.~.~.~.~.Z.3.3.|.OXyXKXKX",
"KXKX%X=.P.~.~.~.g.T FXFXFX% H.~.~.~.~.~.~.U.;.&.y.~.~.~.~.~.~.~.~.~.~.~.~.~.~.: lXFXFX' 9.~.~.~.~.~.~.~.~.~.~.~.n.&.&._.(.5XKXKX",
"KXKXJX~.~.~.~.~.g.T FXFXFX% H.~.~.~.~.~.~.~.~.~.~.~.~.~.~.~.~.~.~.~.~.~.~.~.~.: lXFXFX' 9.~.~.~.~.~.~.~.~.~.~.~.~.~.~.AXFXFXKXKX",
"KXKXJX~.~.~.~.~.g.T FXFXFX% H.~.~.~.~.~.~.~.~.~.~.~.~.~.~.~.~.~.~.~.~.~.~.~.~.: lXFXFX' 9.~.~.~.~.~.~.~.~.~.~.~.~.~.~.AXFXFXKXKX",
"KXKXdXC.C.C.C.C.-._ FXFXFXj i.C.C.C.C.C.C.C.C.C.C.C.C.C.C.C.C.C.C.C.C.C.C.C.l.; MXFXFX.X{ C.C.C.C.C.C.C.C.C.C.C.C.C.C.cXFXFXKXKX",
"KXKX[., , , , , I gXFXFXFX9XN , , , , , , , , , , , , , , , , , , , , , , , 9 :XFXFXFXvX~ < , , , , , , , , , , , , , 2XFXFXKXKX",
"KXKXFXFXFXFXFXFXFXFXFXFXFXFXFXFXFXFXFXFXFXFXFXFXFXFXFXFXFXFXFXFXFXFXFXFXFXFXFXFXFXFXFXFXFXFXFXFXFXFXFXFXFXFXFXFXFXFXFXFXFXFXKXKX",
"KXKXFXFXFXFXFXFXFXFXFXFXFXFXFXFXFXFXFXFXFXFXFXFXFXFXFXFXFXFXFXFXFXFXFXFXFXFXFXFXFXFXFXFXFXFXFXFXFXFXFXFXFXFXFXFXFXFXFXFXFXFXKXKX",
"KXKXFXFXFXFXFXFXFXFXFXFXFXFXFXFXFXFXFXFXFXFXFXFXFXFXFXFXFXFXFXFXFXFXFXFXFXFXFXFXFXFXFXFXFXFXFXFXFXFXFXFXFXFXFXFXFXFXFXFXFXFXKXKX",
"KXKXSXJX$XZ Z Z Z Z Z Z Z Z Z Z Z Z Z Z Z Z Z ! aXFXFXFXkX( Z Z Z Z Z Z Z Z Z Z Z Z Z Z Z Z Z Z Z Z Z Z Z F -XFXFXFXFXoXA {.GXKX",
"KXKXJX~.I.k.k.k.k.k.k.k.k.k.k.k.k.k.k.k.k.k.k.1.S FXFXFX` #.k.k.k.k.k.k.k.k.k.k.k.k.k.k.k.k.k.k.k.k.k.k.k.d.2 hXFXFXeXu j.D.~.KX",
"KXKXJX~.~.~.~.~.~.~.~.~.~.~.~.~.~.~.~.~.~.~.~.S., FXFXFXH k.~.~.~.~.~.~.~.~.~.~.~.~.~.~.~.~.~.~.~.~.~.~.~.~.L 8XFXFX=XO.~.~.~.KX",
"KXKXJX~.~.~.~.~.~.~.~.~.~.~.~.~.~.~.~.~.~.~.~.S., FXFXFXH k.~.~.~.~.~.~.~.~.~.~.~.~.~.~.~.~.~.~.~.~.~.~.~.~.L 8XFXFX=XO.~.~.~.KX",
"KXKXJX~.~.~.~.~.~.~.~.~.~.~.~.c.9.0.I.~.~.~.~.S., FXFXFXH k.~.~.~.~.~.~.~.~.~.~.~.~.~.~.~.I.0.9.9.9.g.~.~.~.L 8XFXFX=XO.~.~.~.KX",
"KXKXJX~.~.~.~.~.~.~.~.~.~.~.~.a.$.%.S.~.~.~.~.S., FXFXFXH k.~.~.~.~.~.~.~.~.~.~.~.~.~.~.~.S.%.$.$.$.w.~.~.~.L 8XFXFX=XO.~.~.~.KX",
"KX X4Xg.j.Q.~.~.~.~.~.~.~.~.~.~.~.~.~.~.~.~.~.S., FXFXFXH k.~.~.~.~.~.~.~.~.~.~.~.~.~.~.~.~.~.~.~.~.~.~.~.~.L 8XFXFX=XO.~.~.~.KX",
"X q G x b V.~.~.~.~.~.~.~.~.~.~.~.~.~.~.~.~.~.S., FXFXFXH k.~.~.~.~.~.~.~.~.~.~.~.~.~.~.~.~.~.~.~.~.~.~.~.~.L 8XFXFX=XO.~.~.~.KX",
"KXKXJX~.~.~.~.~.~.F.Y.~.~.~.~.~.~.~.~.~.~.~.~.S., FXFXFXH k.~.~.~.~.~.F.S.U.~.~.~.~.~.~.~.~.~.~.~.~.~.~.~.~.L 8XFXFX=XO.~.~.~.KX",
"KXKXJX~.~.~.~.~.G.e -.~.~.~.~.~.~.~.~.~.~.~.~.S., FXFXFXH k.~.~.~.~.L.r - [ ~.~.~.~.~.~.~.~.~.~.~.~.~.~.~.~.L 8XFXFX=XO.~.~.~.KX",
"KXKXJX~.~.~.~.~.~.~.~.~.~.~.~.~.~.~.~.~.~.~.~.S., FXFXFXH k.~.~.~.~.~.~.~.~.~.~.~.~.~.~.~.~.~.~.~.~.~.~.~.~.L 8XFXFX=XO.~.~.~.KX",
"KXKXJX~.~.~.~.~.~.~.~.~.~.~.~.~.~.~.~.~.~.~.~.S., FXFXFXH k.~.~.~.~.~.~.~.~.~.~.~.~.~.~.~.~.~.~.~.~.~.~.~.~.L 8XFXFX=XO.~.~.~.KX",
"KXKXJX~.~.~.~.~.~.~.~.~.~.~.~.~.~.~.~.~.~.~.~.N.6 FXFXFXY s.~.~.~.~.~.~.~.~.~.~.~.~.~.~.~.~.~.~.~.~.~.~.~.!.h rXFXFX1XP ~.~.~.KX",
"KXKX}.J J J J J J J J J J J J J J J J J J J J 3 '.FXFXFX<X> J J J J J J J J J J J J J J J J J J J J J J J g 8 VXFXFXbX, h J l k ",
"KXKXzXrXrXrXrXrXrXrXrXrXrXrXrXrXrXrXrXrXrXrXrXfXFXFXFXFXFXjXrXrXrXrXrXrXrXrXrXrXrXrXrXrXrXrXrXrXrXrXrXrXrXuXCXFXFXFXFXNXtXrXXXKX",
"KXKXFXFXFXFXFXFXFXFXFXFXFXFXFXFXFXFXFXFXFXFXFXFXFXFXFXFXFXFXFXFXFXFXFXFXFXFXFXFXFXFXFXFXFXFXFXFXFXFXFXFXFXFXFXFXFXFXFXFXFXFXKXKX",
"KXKXFXFXFXFXFXFXFXFXFXFXFXFXFXFXFXFXFXFXFXFXFXFXFXFXFXFXFXFXFXFXFXFXFXFXFXFXFXFXFXFXFXFXFXFXFXFXFXFXFXFXFXFXFXFXFXFXFXFXFXFXKXKX",
"KX/ #X#X#X#X#X#X0XDXFXFXFXBX3X#X#X#X#X#X#X#X#X#X#X#X#X#X#X#X#X#X#X#X#X#X#X#X,XmXFXFXFXFXpX&X#X#X#X#X#X#X#X#X#X#X#X#X#X#X#X#X/ KX",
"} o.@.@.@.@.@.@.i @XFXFXFX^ z @.@.@.@.@.@.@.@.@.@.@.@.@.@.@.@.@.@.@.@.@.@.@.K B FXFXFX7X> @.@.@.@.@.@.@.@.@.@.@.@.@.@.@.@.@.X.} ",
"KX~.~.~.~.~.~.~.d.R FXFXFX& F.~.~.~.~.~.~.~.~.~.~.~.~.~.~.~.~.~.~.~.~.~.~.~.!.; zXFXFX^.6.~.~.~.~.~.~.~.~.~.~.~.~.~.~.~.~.~.~.KX",
"KX~.~.~.~.~.~.~.g.T FXFXFX% H.~.~.~.~.~.~.~.~.~.~.~.~.~.~.~.~.~.~.~.~.~.~.~.~.: lXFXFX' 9.~.~.~.~.~.~.~.~.~.~.~.~.~.~.~.~.~.~.KX",
"KX~.Y.S.D.~.~.~.g.T FXFXFX% H.~.~.~.~.~.~.~.~.~.~.~.~.~.~.~.~.~.~.~.~.~.~.~.~.: lXFXFX' 9.~.~.~.~.~.~.~.~.~.~.~.~.~.~.D.S.S.S.J.",
"KX~.=.O + N.~.~.g.T FXFXFX% H.~.~.~.~.~.~.~.~.~.~.~.~.~.~.~.~.~.~.~.~.~.~.~.~.: lXFXFX' 9.~.~.~.~.~.~.~.~.~.~.~.~.~.N.+ O O O a ",
"KX~.~.~.~.~.~.~.g.T FXFXFX% H.~.~.~.~.~.~.~.~.~.~.~.~.~.~.~.~.~.~.~.~.~.~.~.~.: lXFXFX' 9.~.~.~.~.~.~.~.~.~.~.~.~.~.~.~.~.~.~.KX",
"KX~.~.~.~.~.~.~.g.T FXFXFX% H.~.~.~.~.~.~.~.~.~.~.~.~.~.~.~.p.- - - - 2.~.~.~.: lXFXFX' 9.~.~.~.~.~.~.~.~.~.~.~.~.~.~.~.~.~.~.KX",
"KX~.~.~.~.~.~.~.g.T FXFXFX% H.~.~.~.~.~.~.~.~.~.~.~.~.~.~.~.W.S.S.S.S.T.~.~.~.: lXFXFX' 9.~.~.~.~.~.~.~.~.~.~.~.~.~.~.~.~.~.~.KX",
"KX~.~.~.~.~.~.~.g.T FXFXFX% H.~.~.~.~.m.c p.~.~.~.~.~.~.~.~.~.~.~.~.~.~.~.~.~.: lXFXFX' 9.~.~.P.M x *.~.~.~.~.~.~.~.~.~.~.~.~.KX",
"KX~.~.~.~.~.~.~.g.T FXFXFX% H.~.~.~.~.R.h.H.~.~.~.~.~.~.~.~.~.~.~.~.~.~.~.~.~.: lXFXFX' 9.~.~.~.z.g.B.~.~.~.~.~.~.~.~.~.~.~.~.KX",
"KX~.~.~.~.~.~.~.g.T FXFXFX% H.~.~.~.~.~.~.~.~.~.~.~.~.~.~.~.~.~.~.~.~.~.~.~.~.: lXFXFX' 9.~.~.~.~.~.~.~.~.~.~.~.~.~.~.~.~.~.~.KX",
"KX~.~.~.~.~.~.~.g.T FXFXFX% H.~.~.~.~.~.~.~.~.~.~.~.~.~.~.~.~.~.~.~.~.~.~.~.~.: lXFXFX' 9.~.~.~.~.~.~.~.~.~.~.~.~.~.~.~.~.~.~.KX",
"5.e.e.e.e.e.e.e.n ].FXFXFXU +.e.e.e.e.e.e.e.e.e.e.e.e.e.e.e.e.e.e.e.e.e.e.e.>.7 CXFXFX,Xf e.e.e.e.e.e.e.e.e.e.e.e.e.e.e.e.e.e.7.",
"* C ) ) ) ) ) ) +XmXFXFXFXkX`.) ) ) ) ) ) ) ) ) ) ) ) ) ) ) ) ) ) ) ) ) ) ) /.sXFXFXFXCX;X) ) ) ) ) ) ) ) ) ) ) ) ) ) ) ) ) C * ",
"KXKXFXFXFXFXFXFXFXFXFXFXFXFXFXFXFXFXFXFXFXFXFXFXFXFXFXFXFXFXFXFXFXFXFXFXFXFXFXFXFXFXFXFXFXFXFXFXFXFXFXFXFXFXFXFXFXFXFXFXFXFXKXKX",
"KXKXFXFXFXFXFXFXFXFXFXFXFXFXFXFXFXFXFXFXFXFXFXFXFXFXFXFXFXFXFXFXFXFXFXFXFXFXFXFXFXFXFXFXFXFXFXFXFXFXFXFXFXFXFXFXFXFXFXFXFXFXKXKX",
"KXKXbXbXbXbXbXbXbXbXbXbXbXbXbXbXbXbXbXbXbXbXbXBXFXFXFXFXFXCXbXbXbXbXbXbXbXbXbXbXbXbXbXbXbXbXbXbXbXbXbXbXbXnXFXFXFXFXFXFXnXbXKXKX",
"w o $ $ $ $ $ $ $ $ $ $ $ $ $ $ $ $ $ $ $ $ $ ; >XFXFXFXqX4 $ $ $ $ $ $ $ $ $ $ $ $ $ $ $ $ $ $ $ $ $ $ $ o E DXFXFXNXD o $ o w ",
"KX~.~.~.~.~.~.~.~.~.~.~.~.~.~.~.~.~.~.~.~.~.~.x.0 FXFXFXQ r.~.~.~.~.~.~.~.~.~.~.~.~.~.~.~.~.~.~.~.~.~.~.~.T.p iXFXFX3Xv Q.~.~.KX",
"KX~.~.~.~.~.~.~.~.~.~.~.~.~.~.~.~.~.~.~.~.~.~.S., FXFXFXH k.~.~.~.~.~.~.~.~.~.~.~.~.~.~.~.~.~.~.~.~.~.~.~.~.L 8XFXFX=XO.~.~.~.KX",
"KX~.~.~.~.~.~.~.~.~.~.~.~.~.~.~.~.~.~.~.~.~.~.S., FXFXFXH k.~.~.~.~.~.~.~.~.~.~.~.~.~.~.~.~.~.~.~.~.~.~.~.~.L 8XFXFX=XO.~.~.~.KX",
"KX~.~.~.~.~.~.~.~.~.E.| &.~.~.~.~.~.~.~.~.~.~.S., FXFXFXH k.~.~.~.~.P.] m m m m m ] K.~.~.~.~.~.~.~.~.~.~.~.L 8XFXFX=XO.~.~.~.KX",
"KX~.~.~.~.~.~.~.~.~.~.c.m.~.~.~.~.~.~.~.~.~.~.S., FXFXFXH k.~.~.~.~.~.k.g.g.g.g.g.k.~.~.~.~.~.~.~.~.~.~.~.~.L 8XFXFX=XO.~.~.~.KX",
"#.&.:.Y.~.~.~.~.~.~.~.~.~.~.~.~.~.~.~.~.~.~.~.S., FXFXFXH k.~.~.~.~.~.~.~.~.~.~.~.~.~.~.~.~.~.~.~.~.~.~.~.~.L 8XFXFX=XO.~.~.~.KX",
"<.3.q.Q.~.~.~.~.~.~.~.~.~.~.~.~.~.~.~.~.~.~.~.S., FXFXFXH k.~.~.~.~.~.~.~.~.~.~.~.~.~.~.~.~.~.~.~.~.~.~.~.~.L 8XFXFX=XO.~.~.~.KX",
"KX~.~.~.~.~.~.~.~.~.~.~.~.~.~.b.t.E.~.~.~.~.~.S., FXFXFXH k.~.~.~.~.~.~.~.~.~.~.~.~.~.~.L.e.A.~.~.~.~.~.~.~.L 8XFXFX=XO.~.~.~.KX",
"KX~.~.~.~.~.~.~.~.~.~.~.~.~.~.i.#.H.~.~.~.~.~.S., FXFXFXH k.~.~.~.~.~.~.~.~.~.~.~.~.~.~.M...l.~.~.~.~.~.~.~.L 8XFXFX=XO.~.~.~.KX",
"KX~.~.~.~.~.~.~.~.~.~.~.~.~.~.~.~.~.~.~.~.~.~.S., FXFXFXH k.~.~.~.~.~.~.~.~.~.~.~.~.~.~.~.~.~.~.~.~.~.~.~.~.L 8XFXFX=XO.~.~.~.KX",
"KX~.~.~.~.~.~.~.~.~.~.~.~.~.~.~.~.~.~.~.~.~.~.S., FXFXFXH k.~.~.~.~.~.~.~.~.~.~.~.~.~.~.~.~.~.~.~.~.~.~.~.~.L 8XFXFX=XO.~.~.~.KX",
"KXH.H.H.H.H.H.H.H.H.H.H.H.H.H.H.H.H.H.H.H.H.H.a.5 KXKXKXV 4.H.H.H.H.H.H.H.H.H.H.H.H.H.H.H.H.H.H.H.H.H.H.H.A.y *XKXKX).d Y.~.~.KX",
"@                                             * KXKXKXKXKX-                                               . 1 KXKXKXKX# [ KXKXKX"
};
