/* XPM */
static char *result[] = {
/* columns rows colors chars-per-pixel */
"64 64 14 1 ",
"  c #E87764",
". c #E87A68",
"X c #E97D6A",
"o c #E97E6B",
"O c #F0A526",
"+ c #F0AB36",
"@ c #F1AB37",
"# c #F2AD37",
"$ c #F4C169",
"% c #F6C97D",
"& c #F6C97E",
"* c #ED9182",
"= c #EE998B",
"- c None",
/* pixels */
"----------------------------------------------------------------",
"----------------------------------------------------------------",
"----------------------------------------------------------------",
"----X  =================----------------------------------------",
"----   =================----------------------------------------",
"----   =================----------------------------------------",
"----   =================----------------------------------------",
"----   =================----------------------------------------",
"----   =================----------------------------------------",
"----   =================----------------------------------------",
"----   *================----------------------------------------",
"----                    ----------------------------------------",
"----o                  o----------------------------------------",
"----------------------------------------------------------------",
"----------------------------------------------------------------",
"   ===========+OO%%%%%%%%%%%%%%%%&X  =================----------",
"   ===========OOO%%%%%%%%%%%%%%%%%   =================----------",
"   ===========OOO%%%%%%%%%%%%%%%%%   =================----------",
"   ===========OOO%%%%%%%%%%%%%%%%%   =================----------",
"   ===========OOO%%%%%%%%%%%%%%%%%   =================----------",
"   ===========OOO%%%%%%%%%%%%%%%%%   =================----------",
"   ===========OOO%%%%%%%%%%%%%%%%%   =================----------",
"   *==========OOO$%%%%%%%%%%%%%%%%   *================----------",
"              OOOOOOOOOOOOOOOOOOOO                    ----------",
"             o@OOOOOOOOOOOOOOOOOO#o                  o----------",
"----------------------------------------------------------------",
"----------------------------------------------------------------",
"---X  =================X  =================X  =================-",
"---   =================   =================   =================-",
"---   =================   =================   =================-",
"---   =================   =================   =================-",
"---   =================   =================   =================-",
"---   =================   =================   =================-",
"---   =================   =================   =================-",
"---   *================   *================   *================-",
"---                   .                                        -",
"---o                  oo                  oo                  o-",
"----------------------------------------------------------------",
"----------------------------------------------------------------",
"   ===========X  =================+OO%%%%%%%%%%%%%%%%&X  =======",
"   ===========   =================OOO%%%%%%%%%%%%%%%%%   =======",
"   ===========   =================OOO%%%%%%%%%%%%%%%%%   =======",
"   ===========   =================OOO%%%%%%%%%%%%%%%%%   =======",
"   ===========   =================OOO%%%%%%%%%%%%%%%%%   =======",
"   ===========   =================OOO%%%%%%%%%%%%%%%%%   =======",
"   ===========   =================OOO%%%%%%%%%%%%%%%%%   =======",
"   *==========   *================OOO$%%%%%%%%%%%%%%%%   *======",
"                                  OOOOOOOOOOOOOOOOOOOO          ",
"             oo                  o@OOOOOOOOOOOOOOOOOO#o         ",
"----------------------------------------------------------------",
"----------------------------------------------------------------",
"----+OO%%%%%%%%%%%%%%%%&X  =================X  =================",
"----OOO%%%%%%%%%%%%%%%%%   =================   =================",
"----OOO%%%%%%%%%%%%%%%%%   =================   =================",
"----OOO%%%%%%%%%%%%%%%%%   =================   =================",
"----OOO%%%%%%%%%%%%%%%%%   =================   =================",
"----OOO%%%%%%%%%%%%%%%%%   =================   =================",
"----OOO%%%%%%%%%%%%%%%%%   =================   =================",
"----OOO$%%%%%%%%%%%%%%%%   *================   *================",
"----OOOOOOOOOOOOOOOOOOOO                                        ",
"----@OOOOOOOOOOOOOOOOOO#o                  oo                  o",
"----------------------------------------------------------------",
"----------------------------------------------------------------",
"----------------------------------------------------------------"
};
